<?xml version="1.0" encoding="utf-8"?>
<!-- Generator: Adobe Illustrator 18.1.1, SVG Export Plug-In . SVG Version: 6.00 Build 0)  -->
<svg version="1.1" id="Layer_1" xmlns="http://www.w3.org/2000/svg" xmlns:xlink="http://www.w3.org/1999/xlink" x="0px" y="0px"
	 width="28px" height="28px" viewBox="0 0 28 28" enable-background="new 0 0 28 28" xml:space="preserve">
<g>
	<path fill="#FFFFFF" d="M12.9,8.2c0.4,0.3,1.2,1,1.2,2.3c0,1.2-0.7,1.8-1.4,2.4c-0.2,0.2-0.5,0.5-0.5,0.8s0.3,0.6,0.4,0.7l0.6,0.5
		c0.8,0.6,1.4,1.2,1.4,2.4c0,1.6-1.6,3.2-4.5,3.2c-2.5,0-3.7-1.2-3.7-2.4c0-0.6,0.3-1.5,1.3-2.1c1.1-0.6,2.5-0.7,3.3-0.8
		c-0.2-0.3-0.5-0.6-0.5-1.1c0-0.3,0.1-0.5,0.2-0.7c-0.2,0-0.4,0-0.5,0c-1.8,0-2.9-1.3-2.9-2.6c0-0.8,0.4-1.6,1.1-2.3
		c1-0.8,2.1-0.9,3.1-0.9h3.5L14,8.2H12.9z M11.7,15.7c-0.1,0-0.2,0-0.4,0c-0.2,0-1.1,0-1.8,0.3C9.1,16.1,8,16.5,8,17.7
		s1.2,2.1,3,2.1c1.7,0,2.5-0.8,2.5-1.8C13.6,17,13,16.6,11.7,15.7 M12.2,12.5c0.4-0.4,0.4-0.9,0.4-1.2c0-1.2-0.7-3.1-2.2-3.1
		c-0.4,0-0.9,0.2-1.2,0.6C9,9,8.9,9.5,8.9,9.9c0,1.1,0.7,3,2.1,3C11.4,12.9,11.9,12.7,12.2,12.5"/>
	<polygon fill="#FFFFFF" points="21.5,10.2 18.9,10.2 18.9,7.6 18.3,7.6 18.3,10.2 15.6,10.2 15.6,10.8 18.3,10.8 18.3,13.5 
		18.9,13.5 18.9,10.8 21.5,10.8 	"/>
</g>
</svg>
