<svg xmlns="http://www.w3.org/2000/svg" width="300px" height="205px" viewBox="0 0 300 205" fill="white" >
<path d="M47.8,203.1V67.3H2.7v135.8H47.8z M25.2,48.8c15.7,0,25.5-10.4,25.5-23.5C50.5,12,41,1.9,25.5,1.9C10.1,1.9,0,12,0,25.4
	c0,13,9.8,23.5,24.9,23.5H25.2L25.2,48.8z"/>
<path d="M72.8,203.1h45.1v-75.8c0-4.1,0.3-8.1,1.5-11c3.3-8.1,10.7-16.5,23.2-16.5c16.3,0,22.9,12.5,22.9,30.7v72.6h45.1v-77.8
	c0-41.7-22.3-61.1-51.9-61.1c-24.3,0-35,13.6-41,22.9h0.3V67.3H72.8C73.3,80.1,72.8,203.1,72.8,203.1L72.8,203.1z"/>
</svg>
