<svg version="1" xmlns="http://www.w3.org/2000/svg" width="346.667" height="346.667" viewBox="0 0 260.000000 260.000000"><path d="M118.8 21.5c-.2.1-3.4.6-7.2.9-3.7.3-7.1.8-7.5 1-.3.2-2.2.7-4.1 1-12.3 2-30.9 10-43.7 18.8-16.5 11.2-35.2 33.5-40.1 47.5-.9 2.7-.8 3.6.4 4.8 2.8 2.8 4.4 1.7 11.6-8.2C52.3 54.8 85.9 36.9 123 37c5.8 0 11.6.2 13 .4 1.4.3 4.3.7 6.5 1.1 5.7.8 16.3 4.1 23.2 7.1 26.1 11.5 46.5 34.1 54.2 59.9 2.9 9.8 3.2 11.7 3.6 23.1 1.3 32.3-14 61-40.7 76.2-5.6 3.2-14.2 6.6-19.3 7.6-1.6.4-4.1.9-5.5 1.1-9.7 1.9-26.4-.1-37-4.4-8.9-3.7-13.9-7-21-14.2-7.2-7.3-7.5-7.7-11.5-16.2-4.3-8.9-5.9-17-5.2-26.2 1.3-18.1 11.1-33.6 25.5-40.3 4.8-2.3 7.1-2.7 14.7-2.7s9.8.4 14.5 2.6c7.2 3.4 11.5 7.4 13.9 12.9 3.6 8 2.4 14.9-3.4 20.2-3.1 3-6.6 3.6-8.2 1.5-.5-.6-1.5-3.1-2.1-5.3-1.3-4.5-5.3-7.3-9.5-6.9-1.2.1-2.9.3-3.9.4-3.1.2-8.6 6.7-10.2 12-3.5 11.7 2.3 23 15.1 29.3 19.3 9.5 42.1.1 52.1-21.4 2.9-6.2 3.3-8.7 3.8-19.8.3-7.8-.1-10.6-1.9-16.1-8.3-24.4-29.7-39.4-56.9-39.8-21.5-.4-40 8.3-54.1 25.4-22.8 27.6-22.8 71.2.1 99.5 21.4 26.4 53.1 38.6 86.7 33.3 31.3-4.9 57.7-23.9 72.8-52.3 21.8-41.2 13.4-95.3-20-128.3C202 46.5 194.6 41.1 182.8 35c-17.6-9.1-32.1-12.7-53.9-13.5-5.4-.2-9.9-.2-10.1 0z"/></svg>