<?xml version="1.0" encoding="utf-8"?>
<!-- Generator: Adobe Illustrator 18.1.1, SVG Export Plug-In . SVG Version: 6.00 Build 0)  -->
<svg version="1.1" id="Layer_1" xmlns="http://www.w3.org/2000/svg" xmlns:xlink="http://www.w3.org/1999/xlink" x="0px" y="0px"
	 viewBox="0 0 330 534" enable-background="new 0 0 330 534" xml:space="preserve">
<g>
	<g>
		<circle fill="#FFFFFF" cx="274.8" cy="267.2" r="6.6"/>
		<circle fill="#FFFFFF" cx="243.4" cy="267.3" r="5.5"/>
		<circle fill="#FFFFFF" cx="212.1" cy="267.5" r="4.4"/>
		<circle fill="#FFFFFF" cx="180.8" cy="267.7" r="3.3"/>
		<circle fill="#FFFFFF" cx="149.4" cy="267.9" r="2.2"/>
	</g>
	<g>
		<circle fill="#FFFFFF" cx="63.1" cy="56.5" r="6.6"/>
		<circle fill="#FFFFFF" cx="63.3" cy="87.8" r="5.5"/>
		<circle fill="#FFFFFF" cx="63.5" cy="119.2" r="4.4"/>
		<circle fill="#FFFFFF" cx="63.7" cy="150.5" r="3.3"/>
		<circle fill="#FFFFFF" cx="63.9" cy="181.8" r="2.2"/>
	</g>
	<g>
		<path fill="#FFFFFF" d="M78.5,281.1l-8.4-23.2H70c0.2,3.4,0.3,6.7,0.3,9.7v13.5h-4.3v-27.7h6.6l8,22.1h0.1l8.2-22.1h6.7v27.7h-4.5
			v-13.7c0-1.4,0-3.2,0.1-5.4c0.1-2.2,0.1-3.6,0.2-4h-0.2l-8.7,23.1H78.5z"/>
		<path fill="#FFFFFF" d="M112.8,281.4c-3.4,0-6-1-8-2.9c-1.9-1.9-2.9-4.5-2.9-7.9c0-3.4,0.9-6.1,2.7-8.1c1.8-2,4.2-2.9,7.3-2.9
			c2.9,0,5.2,0.8,6.8,2.5c1.7,1.7,2.5,4,2.5,6.9v2.4h-14.5c0.1,2,0.6,3.6,1.7,4.7c1.1,1.1,2.6,1.6,4.6,1.6c1.3,0,2.5-0.1,3.6-0.4
			c1.1-0.2,2.3-0.6,3.6-1.2v3.6c-1.1,0.5-2.3,0.9-3.4,1.1C115.6,281.3,114.3,281.4,112.8,281.4 M112,263.1c-1.5,0-2.7,0.4-3.5,1.3
			c-0.9,0.9-1.4,2.2-1.6,3.9h9.9c0-1.7-0.5-3-1.3-3.9C114.6,263.5,113.4,263.1,112,263.1"/>
		<path fill="#FFFFFF" d="M7,253.3h7.9c3.6,0,6.2,0.6,7.9,1.7c1.7,1.2,2.5,2.9,2.5,5.3c0,1.6-0.5,2.9-1.5,4c-1,1.1-2.5,1.8-4.5,2.1
			v0.1c2.3,0.3,4,1,5.1,2.1c1.1,1.1,1.6,2.6,1.6,4.5c0,2.6-0.9,4.5-2.6,5.9c-1.8,1.4-4.3,2.1-7.5,2.1H7V253.3z M9,265.7h6.4
			c2.7,0,4.7-0.4,5.9-1.3c1.2-0.9,1.8-2.2,1.8-4.1s-0.7-3.2-2.1-4c-1.4-0.8-3.5-1.3-6.2-1.3H9V265.7z M9,267.4v12h6.8
			c5.3,0,8-2.1,8-6.3c0-3.8-2.8-5.7-8.4-5.7H9z"/>
		<path fill="#FFFFFF" d="M32,254.7c0-1.2,0.4-1.8,1.2-1.8c0.4,0,0.7,0.2,1,0.5c0.2,0.3,0.3,0.8,0.3,1.3c0,0.6-0.1,1-0.3,1.3
			c-0.2,0.3-0.6,0.5-1,0.5C32.4,256.6,32,255.9,32,254.7 M34.2,281.1h-2v-20.6h2V281.1z"/>
		<path fill="#FFFFFF" d="M59.5,270.7c0,3.4-0.8,6-2.5,7.9c-1.7,1.9-4,2.8-7,2.8c-1.9,0-3.5-0.4-5-1.3c-1.4-0.9-2.5-2.1-3.3-3.8
			c-0.8-1.6-1.1-3.5-1.1-5.7c0-3.4,0.8-6,2.5-7.9c1.7-1.9,4-2.8,7-2.8c2.9,0,5.3,1,6.9,2.9C58.7,264.8,59.5,267.4,59.5,270.7
			 M42.6,270.7c0,2.8,0.6,5,1.9,6.6c1.3,1.6,3.1,2.4,5.5,2.4c2.4,0,4.2-0.8,5.5-2.4c1.3-1.6,1.9-3.8,1.9-6.6c0-2.8-0.7-5.1-2-6.6
			c-1.3-1.6-3.1-2.4-5.5-2.4c-2.4,0-4.2,0.8-5.5,2.3C43.2,265.7,42.6,267.9,42.6,270.7"/>
	</g>
	<g>
		<circle fill="#FFFFFF" cx="246.6" cy="162.2" r="6.6"/>
		<circle fill="#FFFFFF" cx="219.5" cy="178" r="5.5"/>
		<circle fill="#FFFFFF" cx="192.5" cy="193.8" r="4.4"/>
		<circle fill="#FFFFFF" cx="165.4" cy="209.6" r="3.3"/>
		<circle fill="#FFFFFF" cx="138.4" cy="225.4" r="2.2"/>
	</g>
	<g>
		<circle fill="#FFFFFF" cx="168.6" cy="83.9" r="6.6"/>
		<circle fill="#FFFFFF" cx="153.1" cy="111.1" r="5.5"/>
		<circle fill="#FFFFFF" cx="137.6" cy="138.3" r="4.4"/>
		<circle fill="#FFFFFF" cx="122.1" cy="165.5" r="3.3"/>
		<circle fill="#FFFFFF" cx="106.6" cy="192.8" r="2.2"/>
	</g>
	<g>
		<circle fill="#FFFFFF" cx="246.6" cy="373" r="6.6"/>
		<circle fill="#FFFFFF" cx="219.3" cy="357.5" r="5.5"/>
		<circle fill="#FFFFFF" cx="192.1" cy="342" r="4.4"/>
		<circle fill="#FFFFFF" cx="164.9" cy="326.5" r="3.3"/>
		<circle fill="#FFFFFF" cx="137.7" cy="311" r="2.2"/>
	</g>
	<g>
		<circle fill="#FFFFFF" cx="168.4" cy="449.6" r="6.6"/>
		<circle fill="#FFFFFF" cx="152.5" cy="422.6" r="5.5"/>
		<circle fill="#FFFFFF" cx="136.7" cy="395.6" r="4.4"/>
		<circle fill="#FFFFFF" cx="120.9" cy="368.5" r="3.3"/>
		<circle fill="#FFFFFF" cx="105.1" cy="341.5" r="2.2"/>
	</g>
	<g>
		<circle fill="#FFFFFF" cx="65.1" cy="477.6" r="6.6"/>
		<circle fill="#FFFFFF" cx="64.9" cy="446.3" r="5.5"/>
		<circle fill="#FFFFFF" cx="64.7" cy="415" r="4.4"/>
		<circle fill="#FFFFFF" cx="64.5" cy="383.6" r="3.3"/>
		<circle fill="#FFFFFF" cx="64.3" cy="352.3" r="2.2"/>
	</g>
	<path fill="#FFFFFF" d="M169.1,131.7L169.1,131.7c26.6,0,48.2-21.6,48.2-48.2v0c0-26.6-21.6-48.2-48.2-48.2h0
		c-26.6,0-48.2,21.6-48.2,48.2v0C120.8,110.1,142.4,131.7,169.1,131.7z"/>
	<path fill="#FFFFFF" d="M274.8,315.4L274.8,315.4c26.6,0,48.2-21.6,48.2-48.2v0c0-26.6-21.6-48.2-48.2-48.2h0
		c-26.6,0-48.2,21.6-48.2,48.2v0C226.5,293.8,248.1,315.4,274.8,315.4z"/>
	<g>
		<g>
			<path fill="#686868" d="M255.7,248.4c0,1-0.4,1.9-1.1,2.4c-0.7,0.6-1.7,0.8-3.1,0.8h-1.2v4.1h-1.2v-10.3h2.7
				C254.4,245.4,255.7,246.4,255.7,248.4z M250.3,250.6h1.1c1.1,0,1.8-0.2,2.3-0.5c0.5-0.3,0.7-0.9,0.7-1.7c0-0.7-0.2-1.2-0.7-1.5
				c-0.4-0.3-1.1-0.5-2.1-0.5h-1.3V250.6z"/>
			<path fill="#686868" d="M260.9,255.8c-1.1,0-2-0.3-2.7-1c-0.7-0.7-1-1.7-1-2.9c0-1.2,0.3-2.2,0.9-3c0.6-0.7,1.4-1.1,2.5-1.1
				c1,0,1.7,0.3,2.3,1c0.6,0.6,0.8,1.5,0.8,2.5v0.7h-5.3c0,0.9,0.3,1.6,0.7,2.1c0.4,0.5,1,0.7,1.8,0.7c0.8,0,1.7-0.2,2.5-0.5v1
				c-0.4,0.2-0.8,0.3-1.2,0.4C261.9,255.8,261.5,255.8,260.9,255.8z M260.6,248.8c-0.6,0-1.1,0.2-1.5,0.6c-0.4,0.4-0.6,1-0.7,1.7h4
				c0-0.7-0.2-1.3-0.5-1.7C261.7,249,261.2,248.8,260.6,248.8z"/>
			<path fill="#686868" d="M271.1,255.7v-5c0-0.6-0.1-1.1-0.4-1.4s-0.7-0.5-1.3-0.5c-0.8,0-1.4,0.2-1.8,0.7
				c-0.4,0.4-0.6,1.2-0.6,2.2v4.1h-1.2v-7.7h1l0.2,1.1h0.1c0.2-0.4,0.6-0.7,1-0.9c0.4-0.2,0.9-0.3,1.4-0.3c0.9,0,1.6,0.2,2.1,0.7
				c0.5,0.4,0.7,1.2,0.7,2.2v5.1H271.1z"/>
			<path fill="#686868" d="M277.2,254.9c0.2,0,0.4,0,0.6,0c0.2,0,0.3-0.1,0.5-0.1v0.9c-0.1,0.1-0.3,0.1-0.6,0.2
				c-0.2,0-0.5,0.1-0.7,0.1c-1.5,0-2.2-0.8-2.2-2.4v-4.6h-1.1v-0.6l1.1-0.5l0.5-1.7h0.7v1.8h2.2v0.9h-2.2v4.6c0,0.5,0.1,0.8,0.3,1.1
				S276.8,254.9,277.2,254.9z"/>
			<path fill="#686868" d="M284.5,255.7l-0.2-1.1h-0.1c-0.4,0.5-0.8,0.8-1.2,1s-0.9,0.3-1.4,0.3c-0.8,0-1.4-0.2-1.8-0.6
				c-0.4-0.4-0.7-1-0.7-1.7c0-1.6,1.3-2.4,3.8-2.5l1.3,0v-0.5c0-0.6-0.1-1.1-0.4-1.3c-0.3-0.3-0.7-0.4-1.3-0.4
				c-0.6,0-1.4,0.2-2.2,0.6l-0.4-0.9c0.4-0.2,0.8-0.4,1.3-0.5c0.5-0.1,0.9-0.2,1.4-0.2c0.9,0,1.6,0.2,2.1,0.6s0.7,1.1,0.7,2v5.3
				H284.5z M281.9,254.9c0.7,0,1.3-0.2,1.7-0.6c0.4-0.4,0.6-1,0.6-1.7v-0.7l-1.2,0c-0.9,0-1.6,0.2-2,0.4c-0.4,0.3-0.6,0.7-0.6,1.2
				c0,0.4,0.1,0.7,0.4,1C281.1,254.7,281.4,254.9,281.9,254.9z"/>
			<path fill="#686868" d="M293.1,255.7v-5c0-0.6-0.1-1.1-0.4-1.4s-0.7-0.5-1.3-0.5c-0.8,0-1.4,0.2-1.8,0.7s-0.6,1.2-0.6,2.2v4h-1.2
				v-11h1.2v3.3c0,0.4,0,0.7-0.1,1h0.1c0.2-0.4,0.6-0.7,1-0.9c0.4-0.2,0.9-0.3,1.5-0.3c0.9,0,1.7,0.2,2.1,0.7s0.7,1.2,0.7,2.1v5.1
				H293.1z"/>
			<path fill="#686868" d="M303.4,251.8c0,1.3-0.3,2.2-1,3c-0.6,0.7-1.5,1.1-2.6,1.1c-0.7,0-1.3-0.2-1.8-0.5s-1-0.8-1.2-1.4
				c-0.3-0.6-0.4-1.3-0.4-2.1c0-1.3,0.3-2.2,0.9-3s1.5-1.1,2.6-1.1c1.1,0,1.9,0.4,2.6,1.1C303.1,249.6,303.4,250.6,303.4,251.8z
				 M297.5,251.8c0,1,0.2,1.7,0.6,2.3s1,0.8,1.7,0.8c0.8,0,1.4-0.3,1.7-0.8c0.4-0.5,0.6-1.3,0.6-2.3c0-1-0.2-1.7-0.6-2.2
				s-1-0.8-1.8-0.8c-0.8,0-1.3,0.3-1.7,0.8C297.7,250.1,297.5,250.8,297.5,251.8z"/>
			<path fill="#686868" d="M243.1,276.5c-0.4,0-0.8-0.1-1-0.2v-1c0.3,0.1,0.7,0.1,1,0.1c0.5,0,0.8-0.1,1.1-0.4
				c0.2-0.3,0.4-0.7,0.4-1.2v-10.3h1.2v10.2c0,0.9-0.2,1.6-0.7,2.1C244.6,276.2,243.9,276.5,243.1,276.5z"/>
			<path fill="#686868" d="M253,273.8l-0.2-1.1h-0.1c-0.4,0.5-0.8,0.8-1.2,1c-0.4,0.2-0.9,0.3-1.4,0.3c-0.8,0-1.4-0.2-1.8-0.6
				s-0.7-1-0.7-1.7c0-1.6,1.3-2.4,3.8-2.5l1.3,0v-0.5c0-0.6-0.1-1.1-0.4-1.3c-0.3-0.3-0.7-0.4-1.3-0.4c-0.6,0-1.4,0.2-2.2,0.6
				l-0.4-0.9c0.4-0.2,0.8-0.4,1.3-0.5c0.5-0.1,0.9-0.2,1.4-0.2c0.9,0,1.6,0.2,2.1,0.6c0.4,0.4,0.7,1.1,0.7,2v5.3H253z M250.4,272.9
				c0.7,0,1.3-0.2,1.7-0.6c0.4-0.4,0.6-1,0.6-1.7V270l-1.2,0c-0.9,0-1.6,0.2-2,0.4c-0.4,0.3-0.6,0.7-0.6,1.2c0,0.4,0.1,0.7,0.4,1
				C249.6,272.8,249.9,272.9,250.4,272.9z"/>
			<path fill="#686868" d="M258,273.8l-2.9-7.7h1.3l1.7,4.6c0.4,1.1,0.6,1.8,0.7,2.1h0.1c0.1-0.2,0.2-0.8,0.5-1.6
				c0.3-0.8,0.9-2.5,1.9-5.1h1.3l-2.9,7.7H258z"/>
			<path fill="#686868" d="M268.3,273.8l-0.2-1.1h-0.1c-0.4,0.5-0.8,0.8-1.2,1s-0.9,0.3-1.4,0.3c-0.8,0-1.4-0.2-1.8-0.6
				s-0.7-1-0.7-1.7c0-1.6,1.3-2.4,3.8-2.5l1.3,0v-0.5c0-0.6-0.1-1.1-0.4-1.3c-0.3-0.3-0.7-0.4-1.3-0.4c-0.6,0-1.4,0.2-2.2,0.6
				l-0.4-0.9c0.4-0.2,0.8-0.4,1.3-0.5c0.5-0.1,0.9-0.2,1.4-0.2c0.9,0,1.6,0.2,2.1,0.6c0.4,0.4,0.7,1.1,0.7,2v5.3H268.3z
				 M265.7,272.9c0.7,0,1.3-0.2,1.7-0.6c0.4-0.4,0.6-1,0.6-1.7V270l-1.2,0c-0.9,0-1.6,0.2-2,0.4c-0.4,0.3-0.6,0.7-0.6,1.2
				c0,0.4,0.1,0.7,0.4,1C264.9,272.8,265.2,272.9,265.7,272.9z"/>
			<path fill="#686868" d="M277.6,271c0,0.9-0.3,1.6-1,2.1s-1.6,0.8-2.7,0.8c-1.2,0-2.2-0.2-2.8-0.5v-1.2c0.4,0.2,0.9,0.3,1.4,0.4
				c0.5,0.1,1,0.2,1.5,0.2c0.8,0,1.4-0.2,1.8-0.5c0.4-0.3,0.6-0.7,0.6-1.3c0-0.4-0.1-0.7-0.2-0.9c-0.1-0.2-0.4-0.4-0.7-0.6
				c-0.3-0.2-0.8-0.4-1.5-0.7c-1-0.3-1.6-0.8-2.1-1.2c-0.4-0.5-0.6-1.1-0.6-1.8c0-0.8,0.3-1.4,0.9-1.9s1.4-0.7,2.4-0.7
				c1,0,2,0.2,2.8,0.6l-0.4,1c-0.9-0.4-1.7-0.5-2.5-0.5c-0.6,0-1.1,0.1-1.5,0.4c-0.4,0.3-0.5,0.7-0.5,1.1c0,0.4,0.1,0.7,0.2,0.9
				c0.1,0.2,0.4,0.4,0.7,0.6c0.3,0.2,0.8,0.4,1.4,0.6c1.1,0.4,1.8,0.8,2.2,1.2C277.4,269.7,277.6,270.3,277.6,271z"/>
			<path fill="#686868" d="M282.7,273.9c-1.1,0-2-0.3-2.6-1c-0.6-0.7-0.9-1.7-0.9-2.9c0-1.3,0.3-2.3,0.9-3c0.6-0.7,1.5-1.1,2.7-1.1
				c0.4,0,0.7,0,1.1,0.1c0.4,0.1,0.7,0.2,0.9,0.3l-0.4,1c-0.3-0.1-0.5-0.2-0.8-0.3c-0.3-0.1-0.6-0.1-0.8-0.1c-1.6,0-2.4,1-2.4,3
				c0,1,0.2,1.7,0.6,2.2s1,0.8,1.7,0.8c0.6,0,1.3-0.1,2-0.4v1C284.1,273.8,283.5,273.9,282.7,273.9z"/>
			<path fill="#686868" d="M290,265.9c0.3,0,0.7,0,0.9,0.1l-0.2,1.1c-0.3-0.1-0.6-0.1-0.8-0.1c-0.6,0-1.2,0.3-1.6,0.8
				c-0.4,0.5-0.7,1.1-0.7,1.9v4.2h-1.2V266h1l0.1,1.4h0.1c0.3-0.5,0.6-0.9,1-1.2C289.1,266,289.5,265.9,290,265.9z"/>
			<path fill="#686868" d="M292.3,263.9c0-0.3,0.1-0.5,0.2-0.6s0.3-0.2,0.5-0.2c0.2,0,0.4,0.1,0.5,0.2c0.1,0.1,0.2,0.3,0.2,0.6
				c0,0.3-0.1,0.5-0.2,0.6c-0.1,0.1-0.3,0.2-0.5,0.2c-0.2,0-0.4-0.1-0.5-0.2C292.3,264.4,292.3,264.2,292.3,263.9z M293.5,273.8
				h-1.2V266h1.2V273.8z"/>
			<path fill="#686868" d="M299.6,273.9c-0.5,0-1-0.1-1.4-0.3c-0.4-0.2-0.8-0.5-1-0.9h-0.1c0.1,0.5,0.1,0.9,0.1,1.3v3.2H296V266h1
				l0.2,1.1h0.1c0.3-0.4,0.7-0.7,1.1-0.9c0.4-0.2,0.9-0.3,1.4-0.3c1,0,1.8,0.4,2.4,1.1s0.8,1.7,0.8,3c0,1.3-0.3,2.3-0.9,3
				C301.4,273.6,300.6,273.9,299.6,273.9z M299.5,266.9c-0.8,0-1.4,0.2-1.7,0.7c-0.4,0.4-0.5,1.1-0.5,2.1v0.3c0,1.1,0.2,1.9,0.5,2.3
				c0.4,0.5,0.9,0.7,1.7,0.7c0.7,0,1.2-0.3,1.6-0.8c0.4-0.5,0.6-1.3,0.6-2.2c0-1-0.2-1.7-0.6-2.2
				C300.7,267.1,300.2,266.9,299.5,266.9z"/>
			<path fill="#686868" d="M307.4,272.9c0.2,0,0.4,0,0.6,0c0.2,0,0.3-0.1,0.5-0.1v0.9c-0.1,0.1-0.3,0.1-0.6,0.2
				c-0.2,0-0.5,0.1-0.7,0.1c-1.5,0-2.2-0.8-2.2-2.4v-4.6h-1.1v-0.6l1.1-0.5l0.5-1.7h0.7v1.8h2.2v0.9h-2.2v4.6c0,0.5,0.1,0.8,0.3,1.1
				S307,272.9,307.4,272.9z"/>
			<path fill="#686868" d="M269.5,291.9l-1.3-3.3H264l-1.3,3.3h-1.2l4.1-10.4h1l4.1,10.4H269.5z M267.8,287.5l-1.2-3.2
				c-0.2-0.4-0.3-0.9-0.5-1.5c-0.1,0.5-0.3,0.9-0.4,1.5l-1.2,3.2H267.8z"/>
			<path fill="#686868" d="M278.7,284.5c0,1-0.4,1.9-1.1,2.4s-1.7,0.8-3.1,0.8h-1.2v4.1h-1.2v-10.3h2.7
				C277.4,281.5,278.7,282.5,278.7,284.5z M273.3,286.8h1.1c1.1,0,1.8-0.2,2.3-0.5c0.5-0.3,0.7-0.9,0.7-1.7c0-0.7-0.2-1.2-0.7-1.5
				s-1.1-0.5-2.1-0.5h-1.3V286.8z"/>
			<path fill="#686868" d="M280.9,291.9v-10.3h1.2v10.3H280.9z"/>
			<path fill="#686868" d="M289.7,289.8c0,0.7-0.3,1.3-0.8,1.7c-0.5,0.4-1.3,0.6-2.3,0.6c-1,0-1.8-0.2-2.4-0.5v-1.1
				c0.4,0.2,0.8,0.3,1.2,0.4s0.8,0.2,1.2,0.2c0.6,0,1.1-0.1,1.4-0.3c0.3-0.2,0.5-0.5,0.5-0.9c0-0.3-0.1-0.6-0.4-0.8
				s-0.8-0.5-1.5-0.8c-0.7-0.3-1.2-0.5-1.5-0.7c-0.3-0.2-0.5-0.4-0.7-0.7c-0.1-0.3-0.2-0.6-0.2-0.9c0-0.6,0.3-1.1,0.8-1.5
				c0.5-0.4,1.2-0.5,2.1-0.5c0.8,0,1.6,0.2,2.4,0.5l-0.4,1c-0.8-0.3-1.5-0.5-2.1-0.5c-0.6,0-1,0.1-1.3,0.3c-0.3,0.2-0.4,0.4-0.4,0.7
				c0,0.2,0.1,0.4,0.2,0.5c0.1,0.1,0.3,0.3,0.5,0.4c0.2,0.1,0.7,0.3,1.4,0.6c0.9,0.3,1.5,0.7,1.9,1
				C289.5,288.8,289.7,289.2,289.7,289.8z"/>
		</g>
	</g>
	<path fill="#FFFFFF" d="M63.1,104.4L63.1,104.4c26.6,0,48.2-21.6,48.2-48.2v0c0-26.6-21.6-48.2-48.2-48.2h0
		c-26.6,0-48.2,21.6-48.2,48.2v0C14.9,82.8,36.5,104.4,63.1,104.4z"/>
	<g>
		<g>
			<path fill="#686868" d="M42.8,33.9c0,1-0.4,1.9-1.1,2.4c-0.7,0.6-1.7,0.8-3.1,0.8h-1.2v4.1h-1.2V30.9h2.7
				C41.5,30.9,42.8,31.9,42.8,33.9z M37.5,36.1h1.1c1.1,0,1.8-0.2,2.3-0.5c0.5-0.3,0.7-0.9,0.7-1.7c0-0.7-0.2-1.2-0.7-1.5
				c-0.4-0.3-1.1-0.5-2.1-0.5h-1.3V36.1z"/>
			<path fill="#686868" d="M48.1,41.4c-1.1,0-2-0.3-2.7-1c-0.7-0.7-1-1.7-1-2.9c0-1.2,0.3-2.2,0.9-3c0.6-0.7,1.4-1.1,2.5-1.1
				c1,0,1.7,0.3,2.3,1c0.6,0.6,0.8,1.5,0.8,2.5v0.7h-5.3c0,0.9,0.3,1.6,0.7,2.1c0.4,0.5,1,0.7,1.8,0.7c0.8,0,1.7-0.2,2.5-0.5v1
				c-0.4,0.2-0.8,0.3-1.2,0.4C49,41.3,48.6,41.4,48.1,41.4z M47.8,34.3c-0.6,0-1.1,0.2-1.5,0.6s-0.6,1-0.7,1.7h4
				c0-0.7-0.2-1.3-0.5-1.7C48.8,34.5,48.4,34.3,47.8,34.3z"/>
			<path fill="#686868" d="M58.2,41.2v-5c0-0.6-0.1-1.1-0.4-1.4c-0.3-0.3-0.7-0.5-1.3-0.5c-0.8,0-1.4,0.2-1.8,0.7s-0.6,1.2-0.6,2.2
				v4.1h-1.2v-7.7h1l0.2,1.1h0.1c0.2-0.4,0.6-0.7,1-0.9c0.4-0.2,0.9-0.3,1.4-0.3c0.9,0,1.6,0.2,2.1,0.7c0.5,0.4,0.7,1.2,0.7,2.2v5.1
				H58.2z"/>
			<path fill="#686868" d="M64.3,40.4c0.2,0,0.4,0,0.6,0s0.3-0.1,0.5-0.1v0.9c-0.1,0.1-0.3,0.1-0.6,0.2c-0.2,0-0.5,0.1-0.7,0.1
				c-1.5,0-2.2-0.8-2.2-2.4v-4.6h-1.1v-0.6l1.1-0.5l0.5-1.7h0.7v1.8h2.2v0.9h-2.2v4.6c0,0.5,0.1,0.8,0.3,1.1S63.9,40.4,64.3,40.4z"
				/>
			<path fill="#686868" d="M71.7,41.2l-0.2-1.1h-0.1c-0.4,0.5-0.8,0.8-1.2,1c-0.4,0.2-0.9,0.3-1.4,0.3c-0.8,0-1.4-0.2-1.8-0.6
				s-0.7-1-0.7-1.7c0-1.6,1.3-2.4,3.8-2.5l1.3,0v-0.5c0-0.6-0.1-1.1-0.4-1.3s-0.7-0.4-1.3-0.4c-0.6,0-1.4,0.2-2.2,0.6L67.2,34
				c0.4-0.2,0.8-0.4,1.3-0.5c0.5-0.1,0.9-0.2,1.4-0.2c0.9,0,1.6,0.2,2.1,0.6s0.7,1.1,0.7,2v5.3H71.7z M69,40.4
				c0.7,0,1.3-0.2,1.7-0.6s0.6-1,0.6-1.7v-0.7l-1.2,0c-0.9,0-1.6,0.2-2,0.4c-0.4,0.3-0.6,0.7-0.6,1.2c0,0.4,0.1,0.7,0.4,1
				C68.2,40.3,68.6,40.4,69,40.4z"/>
			<path fill="#686868" d="M80.3,41.2v-5c0-0.6-0.1-1.1-0.4-1.4c-0.3-0.3-0.7-0.5-1.3-0.5c-0.8,0-1.4,0.2-1.8,0.7
				c-0.4,0.4-0.6,1.2-0.6,2.2v4H75v-11h1.2v3.3c0,0.4,0,0.7-0.1,1h0.1c0.2-0.4,0.6-0.7,1-0.9c0.4-0.2,0.9-0.3,1.5-0.3
				c0.9,0,1.7,0.2,2.1,0.7s0.7,1.2,0.7,2.1v5.1H80.3z"/>
			<path fill="#686868" d="M90.5,37.3c0,1.3-0.3,2.2-1,3s-1.5,1.1-2.6,1.1c-0.7,0-1.3-0.2-1.8-0.5c-0.5-0.3-1-0.8-1.2-1.4
				c-0.3-0.6-0.4-1.3-0.4-2.1c0-1.3,0.3-2.2,0.9-3c0.6-0.7,1.5-1.1,2.6-1.1c1.1,0,1.9,0.4,2.6,1.1C90.2,35.1,90.5,36.1,90.5,37.3z
				 M84.6,37.3c0,1,0.2,1.7,0.6,2.3c0.4,0.5,1,0.8,1.7,0.8c0.8,0,1.4-0.3,1.7-0.8s0.6-1.3,0.6-2.3c0-1-0.2-1.7-0.6-2.2
				s-1-0.8-1.8-0.8c-0.8,0-1.3,0.3-1.7,0.8C84.8,35.6,84.6,36.3,84.6,37.3z"/>
			<path fill="#686868" d="M56.9,54c0,1.7-0.5,3-1.4,3.9s-2.3,1.4-4,1.4h-2.9V49h3.2c1.6,0,2.9,0.4,3.7,1.3
				C56.4,51.2,56.9,52.4,56.9,54z M55.6,54.1c0-1.3-0.3-2.4-1-3c-0.7-0.7-1.7-1-3-1h-1.7v8.3h1.5c1.4,0,2.5-0.4,3.2-1.1
				C55.2,56.5,55.6,55.5,55.6,54.1z"/>
			<path fill="#686868" d="M63.8,59.3l-0.2-1.1h-0.1c-0.4,0.5-0.8,0.8-1.2,1c-0.4,0.2-0.9,0.3-1.4,0.3c-0.8,0-1.4-0.2-1.8-0.6
				c-0.4-0.4-0.7-1-0.7-1.7c0-1.6,1.3-2.4,3.8-2.5l1.3,0v-0.5c0-0.6-0.1-1.1-0.4-1.3c-0.3-0.3-0.7-0.4-1.3-0.4
				c-0.6,0-1.4,0.2-2.2,0.6l-0.4-0.9c0.4-0.2,0.8-0.4,1.3-0.5c0.5-0.1,0.9-0.2,1.4-0.2c0.9,0,1.6,0.2,2.1,0.6c0.4,0.4,0.7,1.1,0.7,2
				v5.3H63.8z M61.1,58.5c0.7,0,1.3-0.2,1.7-0.6c0.4-0.4,0.6-1,0.6-1.7v-0.7l-1.2,0c-0.9,0-1.6,0.2-2,0.4c-0.4,0.3-0.6,0.7-0.6,1.2
				c0,0.4,0.1,0.7,0.4,1C60.3,58.4,60.7,58.5,61.1,58.5z"/>
			<path fill="#686868" d="M69.6,58.5c0.2,0,0.4,0,0.6,0c0.2,0,0.3-0.1,0.5-0.1v0.9c-0.1,0.1-0.3,0.1-0.6,0.2
				c-0.2,0-0.5,0.1-0.7,0.1c-1.5,0-2.2-0.8-2.2-2.4v-4.6H66v-0.6l1.1-0.5l0.5-1.7h0.7v1.8h2.2v0.9h-2.2V57c0,0.5,0.1,0.8,0.3,1.1
				C68.9,58.3,69.2,58.5,69.6,58.5z"/>
			<path fill="#686868" d="M76.9,59.3l-0.2-1.1h-0.1c-0.4,0.5-0.8,0.8-1.2,1c-0.4,0.2-0.9,0.3-1.4,0.3c-0.8,0-1.4-0.2-1.8-0.6
				s-0.7-1-0.7-1.7c0-1.6,1.3-2.4,3.8-2.5l1.3,0v-0.5c0-0.6-0.1-1.1-0.4-1.3c-0.3-0.3-0.7-0.4-1.3-0.4c-0.6,0-1.4,0.2-2.2,0.6
				l-0.4-0.9c0.4-0.2,0.8-0.4,1.3-0.5c0.5-0.1,0.9-0.2,1.4-0.2c0.9,0,1.6,0.2,2.1,0.6s0.7,1.1,0.7,2v5.3H76.9z M74.3,58.5
				c0.7,0,1.3-0.2,1.7-0.6s0.6-1,0.6-1.7v-0.7l-1.2,0c-0.9,0-1.6,0.2-2,0.4c-0.4,0.3-0.6,0.7-0.6,1.2c0,0.4,0.1,0.7,0.4,1
				C73.5,58.4,73.8,58.5,74.3,58.5z"/>
			<path fill="#686868" d="M27.3,77.4V67.1h1.2v10.3H27.3z"/>
			<path fill="#686868" d="M36.5,77.4v-5c0-0.6-0.1-1.1-0.4-1.4c-0.3-0.3-0.7-0.5-1.3-0.5c-0.8,0-1.4,0.2-1.8,0.7
				c-0.4,0.4-0.6,1.2-0.6,2.2v4.1h-1.2v-7.7h1l0.2,1.1h0.1c0.2-0.4,0.6-0.7,1-0.9s0.9-0.3,1.4-0.3c0.9,0,1.6,0.2,2.1,0.7
				c0.5,0.4,0.7,1.2,0.7,2.2v5.1H36.5z"/>
			<path fill="#686868" d="M42.5,76.6c0.2,0,0.4,0,0.6,0s0.3-0.1,0.5-0.1v0.9c-0.1,0.1-0.3,0.1-0.6,0.2c-0.2,0-0.5,0.1-0.7,0.1
				c-1.5,0-2.2-0.8-2.2-2.4v-4.6H39V70l1.1-0.5l0.5-1.7h0.7v1.8h2.2v0.9h-2.2v4.6c0,0.5,0.1,0.8,0.3,1.1
				C41.9,76.4,42.2,76.6,42.5,76.6z"/>
			<path fill="#686868" d="M48.4,77.5c-1.1,0-2-0.3-2.7-1c-0.7-0.7-1-1.7-1-2.9c0-1.2,0.3-2.2,0.9-3c0.6-0.7,1.4-1.1,2.5-1.1
				c1,0,1.7,0.3,2.3,1c0.6,0.6,0.8,1.5,0.8,2.5v0.7h-5.3c0,0.9,0.3,1.6,0.7,2.1s1,0.7,1.8,0.7c0.8,0,1.7-0.2,2.5-0.5v1
				c-0.4,0.2-0.8,0.3-1.2,0.4C49.4,77.5,48.9,77.5,48.4,77.5z M48.1,70.5c-0.6,0-1.1,0.2-1.5,0.6c-0.4,0.4-0.6,1-0.7,1.7h4
				c0-0.7-0.2-1.3-0.5-1.7C49.2,70.7,48.7,70.5,48.1,70.5z"/>
			<path fill="#686868" d="M59.6,69.6v0.7l-1.4,0.2c0.1,0.2,0.2,0.4,0.4,0.6c0.1,0.3,0.2,0.6,0.2,0.9c0,0.8-0.3,1.4-0.8,1.8
				c-0.5,0.5-1.2,0.7-2.1,0.7c-0.2,0-0.4,0-0.7-0.1c-0.5,0.3-0.7,0.6-0.7,1c0,0.2,0.1,0.4,0.3,0.5c0.2,0.1,0.5,0.2,0.9,0.2h1.4
				c0.8,0,1.5,0.2,1.9,0.5c0.4,0.4,0.7,0.9,0.7,1.5c0,0.9-0.3,1.5-1,2s-1.7,0.7-3,0.7c-1,0-1.8-0.2-2.3-0.6
				c-0.5-0.4-0.8-0.9-0.8-1.6c0-0.5,0.2-0.9,0.5-1.2c0.3-0.3,0.7-0.6,1.3-0.7c-0.2-0.1-0.4-0.2-0.5-0.4c-0.1-0.2-0.2-0.4-0.2-0.7
				c0-0.3,0.1-0.5,0.2-0.7s0.4-0.4,0.7-0.6c-0.4-0.2-0.7-0.4-1-0.8s-0.4-0.8-0.4-1.4c0-0.8,0.3-1.5,0.8-2c0.5-0.5,1.2-0.7,2.2-0.7
				c0.4,0,0.8,0,1.1,0.1H59.6z M53.4,78.7c0,0.4,0.2,0.7,0.5,1c0.4,0.2,0.9,0.3,1.5,0.3c1,0,1.7-0.1,2.2-0.4
				c0.5-0.3,0.7-0.7,0.7-1.2c0-0.4-0.1-0.7-0.4-0.9c-0.3-0.2-0.7-0.2-1.5-0.2h-1.4c-0.5,0-0.9,0.1-1.2,0.4
				C53.6,77.9,53.4,78.2,53.4,78.7z M54.1,72.1c0,0.5,0.2,1,0.5,1.2c0.3,0.3,0.7,0.4,1.3,0.4c1.1,0,1.7-0.6,1.7-1.7
				c0-1.2-0.6-1.7-1.7-1.7c-0.6,0-1,0.1-1.3,0.4C54.2,71.1,54.1,71.5,54.1,72.1z"/>
			<path fill="#686868" d="M64.7,69.5c0.3,0,0.7,0,0.9,0.1l-0.2,1.1c-0.3-0.1-0.6-0.1-0.8-0.1c-0.6,0-1.2,0.3-1.6,0.8
				c-0.4,0.5-0.7,1.1-0.7,1.9v4.2h-1.2v-7.7h1l0.1,1.4h0.1c0.3-0.5,0.6-0.9,1-1.2C63.8,69.6,64.2,69.5,64.7,69.5z"/>
			<path fill="#686868" d="M71.9,77.4l-0.2-1.1h-0.1c-0.4,0.5-0.8,0.8-1.2,1c-0.4,0.2-0.9,0.3-1.4,0.3c-0.8,0-1.4-0.2-1.8-0.6
				s-0.7-1-0.7-1.7c0-1.6,1.3-2.4,3.8-2.5l1.3,0v-0.5c0-0.6-0.1-1.1-0.4-1.3c-0.3-0.3-0.7-0.4-1.3-0.4c-0.6,0-1.4,0.2-2.2,0.6
				l-0.4-0.9c0.4-0.2,0.8-0.4,1.3-0.5c0.5-0.1,0.9-0.2,1.4-0.2c0.9,0,1.6,0.2,2.1,0.6c0.4,0.4,0.7,1.1,0.7,2v5.3H71.9z M69.2,76.6
				c0.7,0,1.3-0.2,1.7-0.6c0.4-0.4,0.6-1,0.6-1.7v-0.7l-1.2,0c-0.9,0-1.6,0.2-2,0.4c-0.4,0.3-0.6,0.7-0.6,1.2c0,0.4,0.1,0.7,0.4,1
				C68.4,76.5,68.8,76.6,69.2,76.6z"/>
			<path fill="#686868" d="M77.7,76.6c0.2,0,0.4,0,0.6,0s0.3-0.1,0.5-0.1v0.9c-0.1,0.1-0.3,0.1-0.6,0.2c-0.2,0-0.5,0.1-0.7,0.1
				c-1.5,0-2.2-0.8-2.2-2.4v-4.6h-1.1V70l1.1-0.5l0.5-1.7h0.7v1.8h2.2v0.9h-2.2v4.6c0,0.5,0.1,0.8,0.3,1.1
				C77,76.4,77.3,76.6,77.7,76.6z"/>
			<path fill="#686868" d="M80.2,67.5c0-0.3,0.1-0.5,0.2-0.6c0.1-0.1,0.3-0.2,0.5-0.2c0.2,0,0.4,0.1,0.5,0.2
				c0.1,0.1,0.2,0.3,0.2,0.6s-0.1,0.5-0.2,0.6c-0.1,0.1-0.3,0.2-0.5,0.2c-0.2,0-0.4-0.1-0.5-0.2C80.2,68,80.2,67.8,80.2,67.5z
				 M81.4,77.4h-1.2v-7.7h1.2V77.4z"/>
			<path fill="#686868" d="M90.6,73.5c0,1.3-0.3,2.2-1,3s-1.5,1.1-2.6,1.1c-0.7,0-1.3-0.2-1.8-0.5c-0.5-0.3-1-0.8-1.2-1.4
				c-0.3-0.6-0.4-1.3-0.4-2.1c0-1.3,0.3-2.2,0.9-3c0.6-0.7,1.5-1.1,2.6-1.1c1.1,0,1.9,0.4,2.6,1.1S90.6,72.3,90.6,73.5z M84.7,73.5
				c0,1,0.2,1.7,0.6,2.3c0.4,0.5,1,0.8,1.7,0.8c0.8,0,1.4-0.3,1.7-0.8c0.4-0.5,0.6-1.3,0.6-2.3c0-1-0.2-1.7-0.6-2.2s-1-0.8-1.8-0.8
				c-0.8,0-1.3,0.3-1.7,0.8C84.9,71.8,84.7,72.5,84.7,73.5z"/>
			<path fill="#686868" d="M98,77.4v-5c0-0.6-0.1-1.1-0.4-1.4c-0.3-0.3-0.7-0.5-1.3-0.5c-0.8,0-1.4,0.2-1.8,0.7
				c-0.4,0.4-0.6,1.2-0.6,2.2v4.1h-1.2v-7.7h1l0.2,1.1h0.1c0.2-0.4,0.6-0.7,1-0.9s0.9-0.3,1.4-0.3c0.9,0,1.6,0.2,2.1,0.7
				c0.5,0.4,0.7,1.2,0.7,2.2v5.1H98z"/>
		</g>
	</g>
	<path fill="#FFFFFF" d="M246.9,210.3L246.9,210.3c26.6,0,48.2-21.6,48.2-48.2v0c0-26.6-21.6-48.2-48.2-48.2h0
		c-26.6,0-48.2,21.6-48.2,48.2v0C198.6,188.7,220.2,210.3,246.9,210.3z"/>
	<g>
		<g>
			<path fill="#686868" d="M226.6,150c0,1-0.4,1.9-1.1,2.4c-0.7,0.6-1.7,0.8-3.1,0.8h-1.2v4.1h-1.2v-10.3h2.7
				C225.3,146.9,226.6,148,226.6,150z M221.3,152.2h1.1c1.1,0,1.8-0.2,2.3-0.5s0.7-0.9,0.7-1.7c0-0.7-0.2-1.2-0.7-1.5
				c-0.4-0.3-1.1-0.5-2.1-0.5h-1.3V152.2z"/>
			<path fill="#686868" d="M231.9,157.4c-1.1,0-2-0.3-2.7-1s-1-1.7-1-2.9c0-1.2,0.3-2.2,0.9-3c0.6-0.7,1.4-1.1,2.5-1.1
				c1,0,1.7,0.3,2.3,1c0.6,0.6,0.8,1.5,0.8,2.5v0.7h-5.3c0,0.9,0.3,1.6,0.7,2.1c0.4,0.5,1,0.7,1.8,0.7c0.8,0,1.7-0.2,2.5-0.5v1
				c-0.4,0.2-0.8,0.3-1.2,0.4C232.8,157.4,232.4,157.4,231.9,157.4z M231.5,150.4c-0.6,0-1.1,0.2-1.5,0.6s-0.6,1-0.7,1.7h4
				c0-0.7-0.2-1.3-0.5-1.7C232.6,150.6,232.2,150.4,231.5,150.4z"/>
			<path fill="#686868" d="M242,157.3v-5c0-0.6-0.1-1.1-0.4-1.4s-0.7-0.5-1.3-0.5c-0.8,0-1.4,0.2-1.8,0.7c-0.4,0.4-0.6,1.2-0.6,2.2
				v4.1h-1.2v-7.7h1l0.2,1.1h0.1c0.2-0.4,0.6-0.7,1-0.9c0.4-0.2,0.9-0.3,1.4-0.3c0.9,0,1.6,0.2,2.1,0.7c0.5,0.4,0.7,1.2,0.7,2.2v5.1
				H242z"/>
			<path fill="#686868" d="M248.1,156.5c0.2,0,0.4,0,0.6,0s0.3-0.1,0.5-0.1v0.9c-0.1,0.1-0.3,0.1-0.6,0.2s-0.5,0.1-0.7,0.1
				c-1.5,0-2.2-0.8-2.2-2.4v-4.6h-1.1v-0.6l1.1-0.5l0.5-1.7h0.7v1.8h2.2v0.9h-2.2v4.6c0,0.5,0.1,0.8,0.3,1.1
				C247.4,156.3,247.7,156.5,248.1,156.5z"/>
			<path fill="#686868" d="M255.5,157.3l-0.2-1.1h-0.1c-0.4,0.5-0.8,0.8-1.2,1c-0.4,0.2-0.9,0.3-1.4,0.3c-0.8,0-1.4-0.2-1.8-0.6
				c-0.4-0.4-0.7-1-0.7-1.7c0-1.6,1.3-2.4,3.8-2.5l1.3,0v-0.5c0-0.6-0.1-1.1-0.4-1.3c-0.3-0.3-0.7-0.4-1.3-0.4
				c-0.6,0-1.4,0.2-2.2,0.6l-0.4-0.9c0.4-0.2,0.8-0.4,1.3-0.5s0.9-0.2,1.4-0.2c0.9,0,1.6,0.2,2.1,0.6c0.4,0.4,0.7,1.1,0.7,2v5.3
				H255.5z M252.8,156.5c0.7,0,1.3-0.2,1.7-0.6c0.4-0.4,0.6-1,0.6-1.7v-0.7l-1.2,0c-0.9,0-1.6,0.2-2,0.4c-0.4,0.3-0.6,0.7-0.6,1.2
				c0,0.4,0.1,0.7,0.4,1C252,156.3,252.4,156.5,252.8,156.5z"/>
			<path fill="#686868" d="M264.1,157.3v-5c0-0.6-0.1-1.1-0.4-1.4c-0.3-0.3-0.7-0.5-1.3-0.5c-0.8,0-1.4,0.2-1.8,0.7
				s-0.6,1.2-0.6,2.2v4h-1.2v-11h1.2v3.3c0,0.4,0,0.7-0.1,1h0.1c0.2-0.4,0.6-0.7,1-0.9c0.4-0.2,0.9-0.3,1.5-0.3
				c0.9,0,1.7,0.2,2.1,0.7s0.7,1.2,0.7,2.1v5.1H264.1z"/>
			<path fill="#686868" d="M274.3,153.4c0,1.3-0.3,2.2-1,3s-1.5,1.1-2.6,1.1c-0.7,0-1.3-0.2-1.8-0.5c-0.5-0.3-1-0.8-1.2-1.4
				c-0.3-0.6-0.4-1.3-0.4-2.1c0-1.3,0.3-2.2,0.9-3s1.5-1.1,2.6-1.1c1.1,0,1.9,0.4,2.6,1.1C274,151.2,274.3,152.2,274.3,153.4z
				 M268.4,153.4c0,1,0.2,1.7,0.6,2.3s1,0.8,1.7,0.8c0.8,0,1.4-0.3,1.7-0.8s0.6-1.3,0.6-2.3c0-1-0.2-1.7-0.6-2.2s-1-0.8-1.8-0.8
				c-0.8,0-1.3,0.3-1.7,0.8C268.6,151.7,268.4,152.4,268.4,153.4z"/>
			<path fill="#686868" d="M225.9,175.4l-1.3-3.3h-4.1l-1.3,3.3H218L222,165h1l4.1,10.4H225.9z M224.2,171l-1.2-3.2
				c-0.2-0.4-0.3-0.9-0.5-1.5c-0.1,0.5-0.3,0.9-0.4,1.5l-1.2,3.2H224.2z"/>
			<path fill="#686868" d="M233.7,175.4v-5c0-0.6-0.1-1.1-0.4-1.4s-0.7-0.5-1.3-0.5c-0.8,0-1.4,0.2-1.8,0.7
				c-0.4,0.4-0.6,1.2-0.6,2.2v4.1h-1.2v-7.7h1l0.2,1.1h0.1c0.2-0.4,0.6-0.7,1-0.9c0.4-0.2,0.9-0.3,1.4-0.3c0.9,0,1.6,0.2,2.1,0.7
				c0.5,0.4,0.7,1.2,0.7,2.2v5.1H233.7z"/>
			<path fill="#686868" d="M242,175.4l-0.2-1.1h-0.1c-0.4,0.5-0.8,0.8-1.2,1c-0.4,0.2-0.9,0.3-1.4,0.3c-0.8,0-1.4-0.2-1.8-0.6
				c-0.4-0.4-0.7-1-0.7-1.7c0-1.6,1.3-2.4,3.8-2.5l1.3,0v-0.5c0-0.6-0.1-1.1-0.4-1.3c-0.3-0.3-0.7-0.4-1.3-0.4
				c-0.6,0-1.4,0.2-2.2,0.6l-0.4-0.9c0.4-0.2,0.8-0.4,1.3-0.5s0.9-0.2,1.4-0.2c0.9,0,1.6,0.2,2.1,0.6c0.4,0.4,0.7,1.1,0.7,2v5.3H242
				z M239.4,174.5c0.7,0,1.3-0.2,1.7-0.6c0.4-0.4,0.6-1,0.6-1.7v-0.7l-1.2,0c-0.9,0-1.6,0.2-2,0.4s-0.6,0.7-0.6,1.2
				c0,0.4,0.1,0.7,0.4,1C238.5,174.4,238.9,174.5,239.4,174.5z"/>
			<path fill="#686868" d="M246.5,175.4h-1.2v-11h1.2V175.4z"/>
			<path fill="#686868" d="M247.7,167.6h1.3l1.7,4.4c0.4,1,0.6,1.7,0.7,2.2h0.1c0.1-0.2,0.2-0.7,0.4-1.2s0.8-2.4,1.9-5.4h1.3
				l-3.3,8.8c-0.3,0.9-0.7,1.5-1.2,1.9c-0.4,0.4-1,0.5-1.6,0.5c-0.4,0-0.7,0-1.1-0.1v-0.9c0.3,0.1,0.5,0.1,0.9,0.1
				c0.8,0,1.4-0.5,1.7-1.4l0.4-1.1L247.7,167.6z"/>
			<path fill="#686868" d="M261.2,175.4h-5.6v-0.8l4.2-6h-4v-0.9h5.3v0.9l-4.2,5.9h4.3V175.4z"/>
			<path fill="#686868" d="M266.3,175.5c-1.1,0-2-0.3-2.7-1c-0.7-0.7-1-1.7-1-2.9c0-1.2,0.3-2.2,0.9-3c0.6-0.7,1.4-1.1,2.5-1.1
				c1,0,1.7,0.3,2.3,1c0.6,0.6,0.8,1.5,0.8,2.5v0.7h-5.3c0,0.9,0.3,1.6,0.7,2.1c0.4,0.5,1,0.7,1.8,0.7c0.8,0,1.7-0.2,2.5-0.5v1
				c-0.4,0.2-0.8,0.3-1.2,0.4C267.3,175.5,266.8,175.5,266.3,175.5z M266,168.5c-0.6,0-1.1,0.2-1.5,0.6c-0.4,0.4-0.6,1-0.7,1.7h4
				c0-0.7-0.2-1.3-0.5-1.7C267.1,168.7,266.6,168.5,266,168.5z"/>
			<path fill="#686868" d="M274.7,167.5c0.3,0,0.7,0,0.9,0.1l-0.2,1.1c-0.3-0.1-0.6-0.1-0.8-0.1c-0.6,0-1.2,0.3-1.6,0.8
				c-0.4,0.5-0.7,1.1-0.7,1.9v4.2h-1.2v-7.7h1l0.1,1.4h0.1c0.3-0.5,0.6-0.9,1-1.2C273.7,167.6,274.2,167.5,274.7,167.5z"/>
		</g>
	</g>
	<path fill="#FFFFFF" d="M219.8,406.1L219.8,406.1c26.6,0,48.2-21.6,48.2-48.2v0c0-26.6-21.6-48.2-48.2-48.2h0
		c-26.6,0-48.2,21.6-48.2,48.2v0C171.5,384.5,193.1,406.1,219.8,406.1z"/>
	<path fill="#FFFFFF" d="M167.7,498.2L167.7,498.2c26.6,0,48.2-21.6,48.2-48.2v0c0-26.6-21.6-48.2-48.2-48.2h0
		c-26.6,0-48.2,21.6-48.2,48.2v0C119.5,476.6,141.1,498.2,167.7,498.2z"/>
	<path fill="#FFFFFF" d="M64.6,526L64.6,526c26.6,0,48.2-21.6,48.2-48.2v0c0-26.6-21.6-48.2-48.2-48.2h0
		c-26.6,0-48.2,21.6-48.2,48.2v0C16.4,504.4,38,526,64.6,526z"/>
	<g>
		<g>
			<path fill="#686868" d="M147.6,72.7c0,1-0.4,1.9-1.1,2.4c-0.7,0.6-1.7,0.8-3.1,0.8h-1.2V80H141V69.7h2.7
				C146.3,69.7,147.6,70.7,147.6,72.7z M142.2,74.9h1.1c1.1,0,1.8-0.2,2.3-0.5c0.5-0.3,0.7-0.9,0.7-1.7c0-0.7-0.2-1.2-0.7-1.5
				c-0.4-0.3-1.1-0.5-2.1-0.5h-1.3V74.9z"/>
			<path fill="#686868" d="M152.8,80.2c-1.1,0-2-0.3-2.7-1c-0.7-0.7-1-1.7-1-2.9c0-1.2,0.3-2.2,0.9-3c0.6-0.7,1.4-1.1,2.5-1.1
				c1,0,1.7,0.3,2.3,1c0.6,0.6,0.8,1.5,0.8,2.5v0.7h-5.3c0,0.9,0.3,1.6,0.7,2.1c0.4,0.5,1,0.7,1.8,0.7c0.8,0,1.7-0.2,2.5-0.5v1
				c-0.4,0.2-0.8,0.3-1.2,0.4C153.8,80.1,153.4,80.2,152.8,80.2z M152.5,73.1c-0.6,0-1.1,0.2-1.5,0.6c-0.4,0.4-0.6,1-0.7,1.7h4
				c0-0.7-0.2-1.3-0.5-1.7C153.6,73.3,153.1,73.1,152.5,73.1z"/>
			<path fill="#686868" d="M163,80v-5c0-0.6-0.1-1.1-0.4-1.4c-0.3-0.3-0.7-0.5-1.3-0.5c-0.8,0-1.4,0.2-1.8,0.7
				c-0.4,0.4-0.6,1.2-0.6,2.2V80h-1.2v-7.7h1l0.2,1.1h0.1c0.2-0.4,0.6-0.7,1-0.9c0.4-0.2,0.9-0.3,1.4-0.3c0.9,0,1.6,0.2,2.1,0.7
				c0.5,0.4,0.7,1.2,0.7,2.2V80H163z"/>
			<path fill="#686868" d="M169.1,79.2c0.2,0,0.4,0,0.6,0s0.3-0.1,0.5-0.1V80c-0.1,0.1-0.3,0.1-0.6,0.2s-0.5,0.1-0.7,0.1
				c-1.5,0-2.2-0.8-2.2-2.4v-4.6h-1.1v-0.6l1.1-0.5l0.5-1.7h0.7v1.8h2.2v0.9h-2.2v4.6c0,0.5,0.1,0.8,0.3,1.1
				C168.4,79.1,168.7,79.2,169.1,79.2z"/>
			<path fill="#686868" d="M176.4,80l-0.2-1.1h-0.1c-0.4,0.5-0.8,0.8-1.2,1c-0.4,0.2-0.9,0.3-1.4,0.3c-0.8,0-1.4-0.2-1.8-0.6
				s-0.7-1-0.7-1.7c0-1.6,1.3-2.4,3.8-2.5l1.3,0v-0.5c0-0.6-0.1-1.1-0.4-1.3s-0.7-0.4-1.3-0.4c-0.6,0-1.4,0.2-2.2,0.6l-0.4-0.9
				c0.4-0.2,0.8-0.4,1.3-0.5c0.5-0.1,0.9-0.2,1.4-0.2c0.9,0,1.6,0.2,2.1,0.6c0.4,0.4,0.7,1.1,0.7,2V80H176.4z M173.8,79.2
				c0.7,0,1.3-0.2,1.7-0.6c0.4-0.4,0.6-1,0.6-1.7v-0.7l-1.2,0c-0.9,0-1.6,0.2-2,0.4c-0.4,0.3-0.6,0.7-0.6,1.2c0,0.4,0.1,0.7,0.4,1
				C173,79.1,173.3,79.2,173.8,79.2z"/>
			<path fill="#686868" d="M185,80v-5c0-0.6-0.1-1.1-0.4-1.4c-0.3-0.3-0.7-0.5-1.3-0.5c-0.8,0-1.4,0.2-1.8,0.7s-0.6,1.2-0.6,2.2v4
				h-1.2V69h1.2v3.3c0,0.4,0,0.7-0.1,1h0.1c0.2-0.4,0.6-0.7,1-0.9c0.4-0.2,0.9-0.3,1.5-0.3c0.9,0,1.7,0.2,2.1,0.7
				c0.5,0.4,0.7,1.2,0.7,2.1V80H185z"/>
			<path fill="#686868" d="M195.3,76.1c0,1.3-0.3,2.2-1,3c-0.6,0.7-1.5,1.1-2.6,1.1c-0.7,0-1.3-0.2-1.8-0.5c-0.5-0.3-1-0.8-1.2-1.4
				s-0.4-1.3-0.4-2.1c0-1.3,0.3-2.2,0.9-3c0.6-0.7,1.5-1.1,2.6-1.1c1.1,0,1.9,0.4,2.6,1.1C195,73.9,195.3,74.9,195.3,76.1z
				 M189.4,76.1c0,1,0.2,1.7,0.6,2.3c0.4,0.5,1,0.8,1.7,0.8s1.4-0.3,1.7-0.8c0.4-0.5,0.6-1.3,0.6-2.3c0-1-0.2-1.7-0.6-2.2
				s-1-0.8-1.8-0.8c-0.8,0-1.3,0.3-1.7,0.8C189.6,74.4,189.4,75.1,189.4,76.1z"/>
			<path fill="#686868" d="M151.1,88.7c-1.1,0-2,0.4-2.7,1.1c-0.7,0.8-1,1.8-1,3.1c0,1.4,0.3,2.4,1,3.1c0.6,0.7,1.5,1.1,2.7,1.1
				c0.7,0,1.5-0.1,2.5-0.4v1.1c-0.7,0.3-1.6,0.4-2.7,0.4c-1.5,0-2.7-0.5-3.5-1.4c-0.8-0.9-1.2-2.2-1.2-3.9c0-1.1,0.2-2,0.6-2.8
				s1-1.4,1.7-1.9c0.8-0.4,1.6-0.7,2.7-0.7c1.1,0,2,0.2,2.8,0.6l-0.5,1C152.7,88.9,151.9,88.7,151.1,88.7z"/>
			<path fill="#686868" d="M159,98.1h-1.2v-9.3h-3.3v-1.1h7.7v1.1H159V98.1z"/>
			<path fill="#686868" d="M170.3,94.2c0,1.3-0.3,2.2-1,3c-0.6,0.7-1.5,1.1-2.6,1.1c-0.7,0-1.3-0.2-1.8-0.5c-0.5-0.3-1-0.8-1.2-1.4
				s-0.4-1.3-0.4-2.1c0-1.3,0.3-2.2,0.9-3c0.6-0.7,1.5-1.1,2.6-1.1c1.1,0,1.9,0.4,2.6,1.1C170,92,170.3,93,170.3,94.2z M164.4,94.2
				c0,1,0.2,1.7,0.6,2.3c0.4,0.5,1,0.8,1.7,0.8s1.4-0.3,1.7-0.8c0.4-0.5,0.6-1.3,0.6-2.3c0-1-0.2-1.7-0.6-2.2
				c-0.4-0.5-1-0.8-1.8-0.8c-0.8,0-1.3,0.3-1.7,0.8C164.6,92.5,164.4,93.2,164.4,94.2z"/>
			<path fill="#686868" d="M179.1,94.2c0,1.3-0.3,2.2-1,3c-0.6,0.7-1.5,1.1-2.6,1.1c-0.7,0-1.3-0.2-1.8-0.5s-1-0.8-1.2-1.4
				c-0.3-0.6-0.4-1.3-0.4-2.1c0-1.3,0.3-2.2,0.9-3s1.5-1.1,2.6-1.1c1.1,0,1.9,0.4,2.6,1.1C178.8,92,179.1,93,179.1,94.2z
				 M173.2,94.2c0,1,0.2,1.7,0.6,2.3c0.4,0.5,1,0.8,1.7,0.8c0.8,0,1.4-0.3,1.7-0.8c0.4-0.5,0.6-1.3,0.6-2.3c0-1-0.2-1.7-0.6-2.2
				s-1-0.8-1.8-0.8c-0.8,0-1.3,0.3-1.7,0.8C173.4,92.5,173.2,93.2,173.2,94.2z"/>
			<path fill="#686868" d="M182.3,98.1h-1.2v-11h1.2V98.1z"/>
			<path fill="#686868" d="M189.8,96c0,0.7-0.3,1.3-0.8,1.7c-0.5,0.4-1.3,0.6-2.3,0.6c-1,0-1.8-0.2-2.4-0.5v-1.1
				c0.4,0.2,0.8,0.3,1.2,0.4c0.4,0.1,0.8,0.2,1.2,0.2c0.6,0,1.1-0.1,1.4-0.3c0.3-0.2,0.5-0.5,0.5-0.9c0-0.3-0.1-0.6-0.4-0.8
				c-0.3-0.2-0.8-0.5-1.5-0.8c-0.7-0.3-1.2-0.5-1.5-0.7c-0.3-0.2-0.5-0.4-0.7-0.7c-0.1-0.3-0.2-0.6-0.2-0.9c0-0.6,0.3-1.1,0.8-1.5
				c0.5-0.4,1.2-0.5,2.1-0.5c0.8,0,1.6,0.2,2.4,0.5l-0.4,1c-0.8-0.3-1.5-0.5-2.1-0.5c-0.6,0-1,0.1-1.3,0.3s-0.4,0.4-0.4,0.7
				c0,0.2,0.1,0.4,0.2,0.5s0.3,0.3,0.5,0.4c0.2,0.1,0.7,0.3,1.4,0.6c0.9,0.3,1.5,0.7,1.9,1C189.6,95.1,189.8,95.5,189.8,96z"/>
		</g>
	</g>
	<g>
		<g>
			<path fill="#686868" d="M190.2,358.3v4.3H189v-10.3h2.8c1.3,0,2.2,0.2,2.8,0.7c0.6,0.5,0.9,1.2,0.9,2.2c0,1.4-0.7,2.3-2.1,2.8
				l2.8,4.6h-1.4l-2.5-4.3H190.2z M190.2,357.2h1.6c0.8,0,1.5-0.2,1.9-0.5c0.4-0.3,0.6-0.8,0.6-1.5c0-0.7-0.2-1.2-0.6-1.5
				c-0.4-0.3-1-0.5-1.9-0.5h-1.6V357.2z"/>
			<path fill="#686868" d="M201.1,362.7c-1.1,0-2-0.3-2.7-1c-0.7-0.7-1-1.7-1-2.9c0-1.2,0.3-2.2,0.9-3s1.4-1.1,2.5-1.1
				c1,0,1.7,0.3,2.3,1s0.8,1.5,0.8,2.5v0.7h-5.3c0,0.9,0.3,1.6,0.7,2.1c0.4,0.5,1,0.7,1.8,0.7c0.8,0,1.7-0.2,2.5-0.5v1
				c-0.4,0.2-0.8,0.3-1.2,0.4C202.1,362.7,201.6,362.7,201.1,362.7z M200.8,355.7c-0.6,0-1.1,0.2-1.5,0.6c-0.4,0.4-0.6,1-0.7,1.7h4
				c0-0.7-0.2-1.3-0.5-1.7C201.8,355.9,201.4,355.7,200.8,355.7z"/>
			<path fill="#686868" d="M208.7,362.7c-1,0-1.8-0.4-2.3-1.1s-0.8-1.7-0.8-2.9c0-1.3,0.3-2.3,0.8-3s1.4-1.1,2.4-1.1
				c1.1,0,1.9,0.4,2.4,1.2h0.1l0.2-1.1h0.9V366h-1.2v-3.3c0-0.5,0-0.9,0.1-1.2h-0.1C210.6,362.3,209.8,362.7,208.7,362.7z
				 M208.9,361.7c0.8,0,1.4-0.2,1.7-0.6c0.4-0.4,0.5-1.1,0.6-2.1v-0.3c0-1.1-0.2-1.9-0.6-2.3c-0.4-0.5-0.9-0.7-1.7-0.7
				c-0.7,0-1.2,0.3-1.6,0.8c-0.4,0.5-0.5,1.3-0.5,2.3c0,1,0.2,1.7,0.5,2.2C207.6,361.5,208.1,361.7,208.9,361.7z"/>
			<path fill="#686868" d="M215.9,354.8v5c0,0.6,0.1,1.1,0.4,1.4s0.7,0.5,1.3,0.5c0.8,0,1.4-0.2,1.8-0.7c0.4-0.4,0.6-1.2,0.6-2.2
				v-4.1h1.2v7.7h-1l-0.2-1H220c-0.2,0.4-0.6,0.7-1,0.9c-0.4,0.2-0.9,0.3-1.5,0.3c-0.9,0-1.6-0.2-2.1-0.7s-0.7-1.2-0.7-2.1v-5.1
				H215.9z"/>
			<path fill="#686868" d="M223.6,352.7c0-0.3,0.1-0.5,0.2-0.6s0.3-0.2,0.5-0.2c0.2,0,0.4,0.1,0.5,0.2c0.1,0.1,0.2,0.3,0.2,0.6
				c0,0.3-0.1,0.5-0.2,0.6c-0.1,0.1-0.3,0.2-0.5,0.2c-0.2,0-0.4-0.1-0.5-0.2C223.6,353.2,223.6,353,223.6,352.7z M224.9,362.6h-1.2
				v-7.7h1.2V362.6z"/>
			<path fill="#686868" d="M230.9,354.7c0.3,0,0.7,0,0.9,0.1l-0.2,1.1c-0.3-0.1-0.6-0.1-0.8-0.1c-0.6,0-1.2,0.3-1.6,0.8
				c-0.4,0.5-0.7,1.1-0.7,1.9v4.2h-1.2v-7.7h1l0.1,1.4h0.1c0.3-0.5,0.6-0.9,1-1.2S230.4,354.7,230.9,354.7z"/>
			<path fill="#686868" d="M236.5,362.7c-1.1,0-2-0.3-2.7-1c-0.7-0.7-1-1.7-1-2.9c0-1.2,0.3-2.2,0.9-3s1.4-1.1,2.5-1.1
				c1,0,1.7,0.3,2.3,1s0.8,1.5,0.8,2.5v0.7H234c0,0.9,0.3,1.6,0.7,2.1c0.4,0.5,1,0.7,1.8,0.7c0.8,0,1.7-0.2,2.5-0.5v1
				c-0.4,0.2-0.8,0.3-1.2,0.4C237.5,362.7,237,362.7,236.5,362.7z M236.2,355.7c-0.6,0-1.1,0.2-1.5,0.6c-0.4,0.4-0.6,1-0.7,1.7h4
				c0-0.7-0.2-1.3-0.5-1.7C237.3,355.9,236.8,355.7,236.2,355.7z"/>
			<path fill="#686868" d="M240,365.3c-0.4,0-0.8-0.1-1-0.2v-1c0.3,0.1,0.7,0.1,1,0.1c0.5,0,0.8-0.1,1.1-0.4
				c0.2-0.3,0.4-0.7,0.4-1.2v-10.3h1.2v10.2c0,0.9-0.2,1.6-0.7,2.1C241.5,365,240.9,365.3,240,365.3z"/>
			<path fill="#686868" d="M251.2,359.8c0,0.9-0.3,1.6-1,2.1s-1.6,0.8-2.7,0.8c-1.2,0-2.2-0.2-2.8-0.5v-1.2c0.4,0.2,0.9,0.3,1.4,0.4
				c0.5,0.1,1,0.2,1.5,0.2c0.8,0,1.4-0.2,1.8-0.5s0.6-0.7,0.6-1.3c0-0.4-0.1-0.7-0.2-0.9c-0.1-0.2-0.4-0.4-0.7-0.6
				c-0.3-0.2-0.8-0.4-1.5-0.7c-1-0.3-1.6-0.8-2.1-1.2c-0.4-0.5-0.6-1.1-0.6-1.8c0-0.8,0.3-1.4,0.9-1.9s1.4-0.7,2.4-0.7
				c1,0,2,0.2,2.8,0.6l-0.4,1c-0.9-0.4-1.7-0.5-2.5-0.5c-0.6,0-1.1,0.1-1.5,0.4c-0.4,0.3-0.5,0.7-0.5,1.1c0,0.4,0.1,0.7,0.2,0.9
				s0.4,0.4,0.7,0.6c0.3,0.2,0.8,0.4,1.4,0.6c1.1,0.4,1.8,0.8,2.2,1.2C251,358.5,251.2,359.1,251.2,359.8z"/>
		</g>
	</g>
	<g>
		<path fill="#686868" d="M149.4,453.2l-1.3-3.3H144l-1.3,3.3h-1.2l4.1-10.4h1l4.1,10.4H149.4z M147.7,448.9l-1.2-3.2
			c-0.2-0.4-0.3-0.9-0.5-1.5c-0.1,0.5-0.3,0.9-0.4,1.5l-1.2,3.2H147.7z"/>
		<path fill="#686868" d="M157.2,453.2v-5c0-0.6-0.1-1.1-0.4-1.4c-0.3-0.3-0.7-0.5-1.3-0.5c-0.8,0-1.4,0.2-1.8,0.7
			c-0.4,0.4-0.6,1.2-0.6,2.2v4.1h-1.2v-7.7h1l0.2,1.1h0.1c0.2-0.4,0.6-0.7,1-0.9c0.4-0.2,0.9-0.3,1.4-0.3c0.9,0,1.6,0.2,2.1,0.7
			c0.5,0.4,0.7,1.2,0.7,2.2v5.1H157.2z"/>
		<path fill="#686868" d="M167.1,445.5v0.7l-1.4,0.2c0.1,0.2,0.2,0.4,0.4,0.6c0.1,0.3,0.2,0.6,0.2,0.9c0,0.8-0.3,1.4-0.8,1.8
			s-1.2,0.7-2.1,0.7c-0.2,0-0.4,0-0.7-0.1c-0.5,0.3-0.7,0.6-0.7,1c0,0.2,0.1,0.4,0.3,0.5s0.5,0.2,0.9,0.2h1.4c0.8,0,1.5,0.2,1.9,0.5
			c0.4,0.4,0.7,0.9,0.7,1.5c0,0.9-0.3,1.5-1,2c-0.7,0.4-1.7,0.7-3,0.7c-1,0-1.8-0.2-2.3-0.6s-0.8-0.9-0.8-1.6c0-0.5,0.2-0.9,0.5-1.2
			c0.3-0.3,0.7-0.6,1.3-0.7c-0.2-0.1-0.4-0.2-0.5-0.4c-0.1-0.2-0.2-0.4-0.2-0.7c0-0.3,0.1-0.5,0.2-0.7s0.4-0.4,0.7-0.6
			c-0.4-0.2-0.7-0.4-1-0.8c-0.3-0.4-0.4-0.8-0.4-1.4c0-0.8,0.3-1.5,0.8-2c0.5-0.5,1.2-0.7,2.2-0.7c0.4,0,0.8,0,1.1,0.1H167.1z
			 M160.9,454.5c0,0.4,0.2,0.7,0.5,1c0.4,0.2,0.9,0.3,1.5,0.3c1,0,1.7-0.1,2.2-0.4c0.5-0.3,0.7-0.7,0.7-1.2c0-0.4-0.1-0.7-0.4-0.9
			c-0.3-0.2-0.7-0.2-1.5-0.2h-1.4c-0.5,0-0.9,0.1-1.2,0.4C161.1,453.7,160.9,454,160.9,454.5z M161.6,448c0,0.5,0.2,1,0.5,1.2
			c0.3,0.3,0.7,0.4,1.3,0.4c1.1,0,1.7-0.6,1.7-1.7c0-1.2-0.6-1.7-1.7-1.7c-0.6,0-1,0.1-1.3,0.4S161.6,447.4,161.6,448z"/>
		<path fill="#686868" d="M169.8,445.5v5c0,0.6,0.1,1.1,0.4,1.4s0.7,0.5,1.3,0.5c0.8,0,1.4-0.2,1.8-0.7c0.4-0.4,0.6-1.2,0.6-2.2
			v-4.1h1.2v7.7h-1l-0.2-1h-0.1c-0.2,0.4-0.6,0.7-1,0.9c-0.4,0.2-0.9,0.3-1.5,0.3c-0.9,0-1.6-0.2-2.1-0.7s-0.7-1.2-0.7-2.1v-5.1
			H169.8z"/>
		<path fill="#686868" d="M178.8,453.2h-1.2v-11h1.2V453.2z"/>
		<path fill="#686868" d="M186,453.2l-0.2-1.1h-0.1c-0.4,0.5-0.8,0.8-1.2,1c-0.4,0.2-0.9,0.3-1.4,0.3c-0.8,0-1.4-0.2-1.8-0.6
			s-0.7-1-0.7-1.7c0-1.6,1.3-2.4,3.8-2.5l1.3,0v-0.5c0-0.6-0.1-1.1-0.4-1.3s-0.7-0.4-1.3-0.4c-0.6,0-1.4,0.2-2.2,0.6l-0.4-0.9
			c0.4-0.2,0.8-0.4,1.3-0.5c0.5-0.1,0.9-0.2,1.4-0.2c0.9,0,1.6,0.2,2.1,0.6c0.4,0.4,0.7,1.1,0.7,2v5.3H186z M183.4,452.4
			c0.7,0,1.3-0.2,1.7-0.6s0.6-1,0.6-1.7v-0.7l-1.2,0c-0.9,0-1.6,0.2-2,0.4s-0.6,0.7-0.6,1.2c0,0.4,0.1,0.7,0.4,1
			C182.5,452.3,182.9,452.4,183.4,452.4z"/>
		<path fill="#686868" d="M192.8,445.3c0.3,0,0.7,0,0.9,0.1l-0.2,1.1c-0.3-0.1-0.6-0.1-0.8-0.1c-0.6,0-1.2,0.3-1.6,0.8
			c-0.4,0.5-0.7,1.1-0.7,1.9v4.2h-1.2v-7.7h1l0.1,1.4h0.1c0.3-0.5,0.6-0.9,1-1.2C191.9,445.5,192.3,445.3,192.8,445.3z"/>
	</g>
	<g>
		<path fill="#686868" d="M32.6,471.7h2.9c1.4,0,2.4,0.2,3,0.6s0.9,1.1,0.9,1.9c0,0.6-0.2,1.1-0.5,1.5s-0.8,0.7-1.5,0.8v0.1
			c1.6,0.3,2.4,1.1,2.4,2.5c0,0.9-0.3,1.6-0.9,2.2c-0.6,0.5-1.5,0.8-2.6,0.8h-3.6V471.7z M33.8,476.1h2c0.8,0,1.5-0.1,1.8-0.4
			s0.6-0.7,0.6-1.3c0-0.6-0.2-1-0.6-1.3c-0.4-0.3-1.1-0.4-2-0.4h-1.8V476.1z M33.8,477.1v3.9H36c0.8,0,1.5-0.2,1.9-0.5
			c0.4-0.3,0.6-0.8,0.6-1.5c0-0.6-0.2-1.1-0.6-1.4c-0.4-0.3-1.1-0.5-2-0.5H33.8z"/>
		<path fill="#686868" d="M48.5,478.1c0,1.3-0.3,2.2-1,3s-1.5,1.1-2.6,1.1c-0.7,0-1.3-0.2-1.8-0.5c-0.5-0.3-1-0.8-1.2-1.4
			c-0.3-0.6-0.4-1.3-0.4-2.1c0-1.3,0.3-2.2,0.9-3c0.6-0.7,1.5-1.1,2.6-1.1c1.1,0,1.9,0.4,2.6,1.1C48.2,475.9,48.5,476.9,48.5,478.1z
			 M42.6,478.1c0,1,0.2,1.7,0.6,2.3c0.4,0.5,1,0.8,1.7,0.8s1.4-0.3,1.7-0.8c0.4-0.5,0.6-1.3,0.6-2.3c0-1-0.2-1.7-0.6-2.2
			c-0.4-0.5-1-0.8-1.8-0.8c-0.8,0-1.3,0.3-1.7,0.8C42.8,476.4,42.6,477.1,42.6,478.1z"/>
		<path fill="#686868" d="M57.3,478.1c0,1.3-0.3,2.2-1,3s-1.5,1.1-2.6,1.1c-0.7,0-1.3-0.2-1.8-0.5c-0.5-0.3-1-0.8-1.2-1.4
			c-0.3-0.6-0.4-1.3-0.4-2.1c0-1.3,0.3-2.2,0.9-3c0.6-0.7,1.5-1.1,2.6-1.1c1.1,0,1.9,0.4,2.6,1.1C57,475.9,57.3,476.9,57.3,478.1z
			 M51.4,478.1c0,1,0.2,1.7,0.6,2.3c0.4,0.5,1,0.8,1.7,0.8c0.8,0,1.4-0.3,1.7-0.8c0.4-0.5,0.6-1.3,0.6-2.3c0-1-0.2-1.7-0.6-2.2
			c-0.4-0.5-1-0.8-1.8-0.8c-0.8,0-1.3,0.3-1.7,0.8C51.6,476.4,51.4,477.1,51.4,478.1z"/>
		<path fill="#686868" d="M61.8,481.2c0.2,0,0.4,0,0.6,0c0.2,0,0.3-0.1,0.5-0.1v0.9c-0.1,0.1-0.3,0.1-0.6,0.2
			c-0.2,0-0.5,0.1-0.7,0.1c-1.5,0-2.2-0.8-2.2-2.4v-4.6h-1.1v-0.6l1.1-0.5l0.5-1.7h0.7v1.8h2.2v0.9h-2.2v4.6c0,0.5,0.1,0.8,0.3,1.1
			S61.4,481.2,61.8,481.2z"/>
		<path fill="#686868" d="M69.4,479.9c0,0.7-0.3,1.3-0.8,1.7c-0.5,0.4-1.3,0.6-2.3,0.6c-1,0-1.8-0.2-2.4-0.5v-1.1
			c0.4,0.2,0.8,0.3,1.2,0.4c0.4,0.1,0.8,0.2,1.2,0.2c0.6,0,1.1-0.1,1.4-0.3c0.3-0.2,0.5-0.5,0.5-0.9c0-0.3-0.1-0.6-0.4-0.8
			c-0.3-0.2-0.8-0.5-1.5-0.8c-0.7-0.3-1.2-0.5-1.5-0.7c-0.3-0.2-0.5-0.4-0.7-0.7c-0.1-0.3-0.2-0.6-0.2-0.9c0-0.6,0.3-1.1,0.8-1.5
			c0.5-0.4,1.2-0.5,2.1-0.5c0.8,0,1.6,0.2,2.4,0.5l-0.4,1c-0.8-0.3-1.5-0.5-2.1-0.5c-0.6,0-1,0.1-1.3,0.3s-0.4,0.4-0.4,0.7
			c0,0.2,0.1,0.4,0.2,0.5s0.3,0.3,0.5,0.4c0.2,0.1,0.7,0.3,1.4,0.6c0.9,0.3,1.5,0.7,1.9,1C69.3,478.9,69.4,479.4,69.4,479.9z"/>
		<path fill="#686868" d="M73.8,481.2c0.2,0,0.4,0,0.6,0c0.2,0,0.3-0.1,0.5-0.1v0.9c-0.1,0.1-0.3,0.1-0.6,0.2
			c-0.2,0-0.5,0.1-0.7,0.1c-1.5,0-2.2-0.8-2.2-2.4v-4.6h-1.1v-0.6l1.1-0.5l0.5-1.7h0.7v1.8h2.2v0.9h-2.2v4.6c0,0.5,0.1,0.8,0.3,1.1
			S73.5,481.2,73.8,481.2z"/>
		<path fill="#686868" d="M80,474.1c0.3,0,0.7,0,0.9,0.1l-0.2,1.1c-0.3-0.1-0.6-0.1-0.8-0.1c-0.6,0-1.2,0.3-1.6,0.8
			s-0.7,1.1-0.7,1.9v4.2h-1.2v-7.7h1l0.1,1.4h0.1c0.3-0.5,0.6-0.9,1-1.2S79.5,474.1,80,474.1z"/>
		<path fill="#686868" d="M87.1,482l-0.2-1.1h-0.1c-0.4,0.5-0.8,0.8-1.2,1s-0.9,0.3-1.4,0.3c-0.8,0-1.4-0.2-1.8-0.6
			c-0.4-0.4-0.7-1-0.7-1.7c0-1.6,1.3-2.4,3.8-2.5l1.3,0v-0.5c0-0.6-0.1-1.1-0.4-1.3s-0.7-0.4-1.3-0.4c-0.6,0-1.4,0.2-2.2,0.6
			l-0.4-0.9c0.4-0.2,0.8-0.4,1.3-0.5c0.5-0.1,0.9-0.2,1.4-0.2c0.9,0,1.6,0.2,2.1,0.6c0.4,0.4,0.7,1.1,0.7,2v5.3H87.1z M84.5,481.2
			c0.7,0,1.3-0.2,1.7-0.6c0.4-0.4,0.6-1,0.6-1.7v-0.7l-1.2,0c-0.9,0-1.6,0.2-2,0.4c-0.4,0.3-0.6,0.7-0.6,1.2c0,0.4,0.1,0.7,0.4,1
			C83.7,481,84,481.2,84.5,481.2z"/>
		<path fill="#686868" d="M94,482.1c-0.5,0-1-0.1-1.4-0.3s-0.8-0.5-1-0.9h-0.1c0.1,0.5,0.1,0.9,0.1,1.3v3.2h-1.2v-11.2h1l0.2,1.1
			h0.1c0.3-0.4,0.7-0.7,1.1-0.9c0.4-0.2,0.9-0.3,1.4-0.3c1,0,1.8,0.4,2.4,1.1c0.6,0.7,0.8,1.7,0.8,3c0,1.3-0.3,2.3-0.9,3
			C95.8,481.8,95,482.1,94,482.1z M93.8,475.1c-0.8,0-1.4,0.2-1.7,0.7c-0.4,0.4-0.5,1.1-0.5,2.1v0.3c0,1.1,0.2,1.9,0.5,2.3
			c0.4,0.5,0.9,0.7,1.7,0.7c0.7,0,1.2-0.3,1.6-0.8c0.4-0.5,0.6-1.3,0.6-2.2c0-1-0.2-1.7-0.6-2.2C95.1,475.4,94.5,475.1,93.8,475.1z"
			/>
	</g>
</g>
</svg>
