<?xml version="1.0" encoding="utf-8"?>
<!-- Generator: Adobe Illustrator 19.0.0, SVG Export Plug-In . SVG Version: 6.00 Build 0)  -->
<svg version="1.1" id="Layer_1" xmlns="http://www.w3.org/2000/svg" xmlns:xlink="http://www.w3.org/1999/xlink" x="0px" y="0px"
	 width="780px" height="320px" viewBox="0 0 780 320" style="enable-background:new 0 0 780 320;" xml:space="preserve">
<style type="text/css">
	.st0{fill:none;stroke:#C1D7E1;stroke-miterlimit:10;}
	.st1{fill:#C1D7E1;}
	.st2{fill:none;}
	.st3{fill:none;stroke:#C1D7E1;stroke-width:3;stroke-miterlimit:10;}
	.st4{fill:none;stroke:#C1D7E1;stroke-width:3;stroke-linejoin:bevel;stroke-miterlimit:10;}
	.st5{fill:none;stroke:#C1D7E1;stroke-linejoin:bevel;stroke-miterlimit:10;}
	.st6{fill:#C1D7E1;stroke:#C1D7E1;stroke-width:3;stroke-miterlimit:10;}
	.st7{fill:#C1D7E1;stroke:#C1D7E1;stroke-width:1.8;stroke-miterlimit:10;}
	.st8{fill:none;stroke:#C1D7E1;stroke-width:2;stroke-linecap:round;stroke-linejoin:round;stroke-miterlimit:10;}
	.st9{opacity:0;fill:none;stroke:#C1D7E1;stroke-miterlimit:10;}
</style>
<g>
	<g>
		<line class="st0" x1="265.4" y1="39.2" x2="294.4" y2="39.2"/>
		<line class="st0" x1="265.4" y1="45.3" x2="294.4" y2="45.3"/>
		<line class="st0" x1="265.4" y1="51.4" x2="280.8" y2="51.4"/>
	</g>
	<polygon class="st1" points="304,25.4 255.8,25.4 255.8,64.4 276.6,64.4 276.6,64.3 273.7,61.4 258.8,61.4 258.8,28.4 301,28.4 
		301,61.4 289,61.4 289,62.9 289,64.3 289,68.2 282.1,61.3 277.9,61.3 289.5,72.9 292,71.8 292,64.3 304,64.4 	"/>
</g>
<g>
	<g>
		<line class="st0" x1="39" y1="42" x2="61.1" y2="42"/>
		<line class="st0" x1="39" y1="48.6" x2="61.1" y2="48.6"/>
		<line class="st0" x1="39" y1="55.2" x2="61.1" y2="55.2"/>
		<line class="st0" x1="39" y1="61.8" x2="49.1" y2="61.8"/>
	</g>
	<g>
		<polygon class="st2" points="59.3,25.7 33,25.7 33,72.5 67.2,72.5 67.2,33.6 59.3,33.6 		"/>
		<path class="st1" d="M62.3,30.6v-3.5l-4.4-4.4H30v52.8h40.2V35l-4.4-4.4H62.3z M67.2,72.5H33V25.7h26.4v7.9h7.9V72.5z"/>
	</g>
</g>
<g>
	<polyline class="st3" points="482.1,46.6 482.1,31.4 517.8,31.4 517.8,46.8 	"/>
	<g>
		<line class="st0" x1="490.1" y1="43" x2="509.8" y2="43"/>
		<line class="st0" x1="490.1" y1="47.8" x2="509.8" y2="47.8"/>
	</g>
	<polyline class="st3" points="509.1,31.1 500,24.4 490.6,31.2 	"/>
	<path class="st3" d="M482.1,37.4l-3.1,2.2c-1.5,1.1-3,2.1-3,3.9v30.3h47.8V43.6c0-1.9-1.4-2.7-3-3.9l-3.1-2.2"/>
	<line class="st0" x1="494.1" y1="55.8" x2="476.1" y2="73.9"/>
	<g>
		<line class="st3" x1="476.7" y1="43" x2="500" y2="60.1"/>
		<polyline class="st3" points="523.4,43 500,60.1 489.2,52.2 		"/>
	</g>
	<line class="st0" x1="506.3" y1="55.8" x2="524.1" y2="73.6"/>
</g>
<g>
	<g>
		<path class="st4" d="M736.1,68.3l-7.7,6.5l1.8-10l24.5-41.6c0.8-1.4,2.6-1.8,4-1l0.8,0.5c1.4,0.8,1.8,2.6,1,4L736.1,68.3z"/>
		<line class="st4" x1="729.2" y1="70.9" x2="731.4" y2="72.4"/>
		<line class="st5" x1="748.6" y1="33.7" x2="754.4" y2="37.2"/>
		<line class="st5" x1="753" y1="26.1" x2="758.9" y2="29.6"/>
		<line class="st5" x1="730.3" y1="64.6" x2="736.1" y2="68.1"/>
	</g>
	<g>
		<polygon class="st1" points="721.6,73.4 689.1,73.4 692.1,76.4 721.6,76.4 		"/>
	</g>
</g>
<g>
	<g>
		<polygon class="st1" points="492.7,270.7 492.7,275.3 488.1,275.3 488.1,270.7 		"/>
		<polygon class="st1" points="502.9,270.7 502.9,275.3 498.2,275.3 498.2,270.7 		"/>
		<polygon class="st1" points="513,270.7 513,275.3 508.3,275.3 508.3,270.7 		"/>
	</g>
	<g>
		<g>
			<path class="st1" d="M469.4,270.5c1.1,0,2.1-0.3,2.8-0.9c0.7-0.6,1.2-1.4,1.4-2.4s0.4-2.8,0.4-5.2c0-2.5,0.1-5.3,0.1-6.1
				c0.1-1.2,0.4-2.2,0.7-3c0.4-0.8,0.8-1.4,1.3-1.8c0.5-0.5,1.2-0.8,2-1c0.6-0.1,1.5-0.2,2.8-0.2h1.2v3.5h-0.7
				c-1.5,0-2.6,0.3-3.1,0.8c-0.5,0.6-0.8,1.8-0.8,3.7c0,3.9-0.1,7.5-0.2,8.5c-0.3,1.6-0.7,2.8-1.4,3.7c-0.6,0.9-1.7,1.6-3,2.3
				c1.6,0.7,2.8,1.7,3.5,3.1c0.7,1.4,1.1,3.7,1.1,6.9c0,2.9,0,5.8,0.1,6.3c0.1,1,0.4,1.7,0.9,2.1c0.5,0.4,1.4,0.6,2.8,0.6h0.7v3.5
				H481c-1.5,0-2.5-0.1-3.2-0.4c-0.9-0.3-1.7-0.9-2.4-1.7c-0.6-0.8-1-1.7-1.2-2.9c-0.2-1.2-0.3-4.3-0.3-6.9s-0.1-4.5-0.4-5.5
				s-0.7-1.8-1.4-2.4c-0.7-0.6-1.6-0.9-2.8-0.9V270.5z"/>
		</g>
		<g>
			<path class="st1" d="M531.7,274.1c-1.1,0-2.1,0.3-2.8,0.9s-1.2,1.4-1.4,2.4c-0.2,1-0.4,2.8-0.4,5.2c0,2.5-0.1,5.3-0.1,6.1
				c-0.1,1.2-0.4,2.2-0.7,3s-0.8,1.4-1.3,1.8c-0.5,0.5-1.2,0.8-2,1c-0.6,0.1-1.5,0.2-2.8,0.2h-1.2v-3.5h0.7c1.5,0,2.6-0.3,3.1-0.8
				c0.5-0.6,0.8-1.8,0.8-3.7c0-3.9,0.1-7.5,0.2-8.5c0.3-1.6,0.7-2.8,1.4-3.7c0.6-0.9,1.7-1.6,3-2.3c-1.6-0.7-2.8-1.7-3.5-3.1
				c-0.7-1.4-1.1-3.7-1.1-6.9c0-2.9,0-5.8-0.1-6.3c-0.1-1-0.4-1.7-0.9-2.1c-0.5-0.4-1.4-0.6-2.8-0.6h-0.7v-3.5l1.2,0
				c1.5,0,2.5,0.1,3.2,0.4c0.9,0.3,1.7,0.9,2.4,1.7s1,1.7,1.2,2.9s0.3,4.3,0.3,6.9c0,2.7,0.1,4.5,0.4,5.5c0.2,1,0.7,1.8,1.4,2.4
				s1.6,0.9,2.8,0.9V274.1z"/>
		</g>
	</g>
</g>
<g>
	<path class="st3" d="M275.5,293.1L275.5,293.1c-8.3,0-15.1-6.8-15.1-15.1v-9.4c0-8.3,6.8-15.1,15.1-15.1h0
		c8.3,0,15.1,6.8,15.1,15.1v9.4C290.6,286.4,283.8,293.1,275.5,293.1z"/>
	<path class="st3" d="M261.3,264c-3,0-5.5-2.5-5.5-5.5v-11.1"/>
	<path class="st3" d="M259.3,298.8v-13.1c0-1.3,1.1-2.3,2.3-2.3"/>
	<path class="st3" d="M290,283.3c1.3,0,2.3,1.1,2.3,2.3v11.8"/>
	<path class="st3" d="M268.5,255.3v-2.4c0-3.9,3.2-7.1,7.1-7.1l0,0c3.9,0,7.1,3.2,7.1,7.1v2.8"/>
	<path class="st3" d="M289.7,264c3,0,5.5-2.5,5.5-5.5v-11.1"/>
	<g>
		<polyline class="st0" points="275.5,253.6 275.5,285 271.5,292.6 		"/>
		<line class="st0" x1="275.5" y1="285" x2="279.5" y2="292.6"/>
	</g>
	<g>
		<path class="st3" d="M290.6,271.7l6.2,3.6c0.3,0.2,0.6,0.4,0.9,0.7l0,0c0.8,0.8,1.3,2,1.3,3.2v11.2"/>
		<path class="st3" d="M260.5,271.7l-6.2,3.6c-0.3,0.2-0.6,0.4-0.9,0.7l0,0c-0.8,0.8-1.3,2-1.3,3.2v11.2"/>
	</g>
</g>
<g>
	<path class="st6" d="M700.1,252.9h16.5v-4.1h1.4v4.1h16.6"/>
	<path class="st2" d="M735.7,265.6l-8.5,19.7h17.7l-8.5-19.7C736.3,265.3,735.9,265.3,735.7,265.6z"/>
	<g>
		<path class="st2" d="M736.5,265.6c-0.1-0.3-0.6-0.3-0.7,0l-8.5,19.7h17.7L736.5,265.6z"/>
		<path class="st7" d="M726.6,286.7h18.9l3.9,9.1h1.6l-4.3-10l-9.5-22.2h-2l-9.5,22.2l-4.3,10h1.5L726.6,286.7z M727.3,285.3
			l8.5-19.7c0.1-0.3,0.6-0.3,0.7,0l8.5,19.7H727.3z"/>
	</g>
	<path class="st7" d="M727.4,254.3h-1.5c-1,6.5-4.8,11.9-9,15.8c-2.8-2.7-5.4-6-7.1-9.8h-1.5c0,0,0,0,0,0.1
		c1.8,4.2,4.6,7.8,7.6,10.7c-4.8,4.3-9.9,7-12.3,8.2v1.5c2.2-1,8-3.8,13.3-8.6c2.9,2.6,4.5,3.9,7,5.3l0.6-1.3
		c-2.3-1.4-3.7-2.5-6.4-4.9C722.5,266.9,726.4,261.3,727.4,254.3z"/>
</g>
<g id="XMLID_106_">
	<rect id="XMLID_113_" x="27" y="252.7" class="st3" width="55.9" height="45.4"/>
	<line id="XMLID_112_" class="st0" x1="27.7" y1="261.6" x2="82.2" y2="261.6"/>
	<g id="XMLID_109_">
		<line id="XMLID_111_" class="st8" x1="76.2" y1="257.5" x2="77.4" y2="257.5"/>
		<line id="XMLID_110_" class="st8" x1="71.3" y1="257.5" x2="72.5" y2="257.5"/>
	</g>
	<g id="XMLID_107_">
		<polyline id="XMLID_108_" class="st3" points="34.2,252.9 34.2,246.4 90,246.4 90,291.9 82.9,291.9 		"/>
	</g>
</g>
<g>
	<g>
		<line class="st0" x1="36.7" y1="270.4" x2="27.2" y2="270.4"/>
		<line class="st0" x1="41.9" y1="275.7" x2="27.2" y2="275.7"/>
		<line class="st0" x1="33.6" y1="281" x2="27.2" y2="281"/>
		<line class="st0" x1="37.6" y1="286.4" x2="27.2" y2="286.4"/>
	</g>
	<rect x="50.8" y="267.6" class="st9" width="17.1" height="21.5"/>
</g>
</svg>
