<?xml version="1.0" encoding="utf-8"?>
<!-- Generator: Adobe Illustrator 18.1.1, SVG Export Plug-In . SVG Version: 6.00 Build 0)  -->
<svg version="1.1" id="Layer_1" xmlns="http://www.w3.org/2000/svg" xmlns:xlink="http://www.w3.org/1999/xlink" x="0px" y="0px"
	 width="28px" height="28px" viewBox="0 0 28 28" enable-background="new 0 0 28 28" xml:space="preserve">
<g>
	<g>
		<path fill="#FFFFFF" d="M8.3,6.9c-1,0-1.6,0.6-1.6,1.5c0,0.8,0.6,1.5,1.5,1.5c1,0,1.6-0.7,1.6-1.5C9.9,7.5,9.3,6.9,8.3,6.9z
			 M6.8,21.1h3V11h-3V21.1z M17.8,11.1c-0.9,0-1.9-0.2-2.9,1.4h-0.1L14.8,11h-2.6c0,0.8,0,2.1,0,3.3v6.8h3v-5.9c0-0.3,0-0.5,0.1-0.7
			c0.2-0.5,0.7-1.1,1.5-1.1c1.1,0,1.5,0.8,1.5,2.1v5.6h3v-6C21.2,12.3,19.8,11.1,17.8,11.1z"/>
	</g>
</g>
</svg>
