<?xml version="1.0" encoding="UTF-8" standalone="no"?>
<!-- Created with Inkscape (http://www.inkscape.org/) -->

<svg
   xmlns:dc="http://purl.org/dc/elements/1.1/"
   xmlns:cc="http://creativecommons.org/ns#"
   xmlns:rdf="http://www.w3.org/1999/02/22-rdf-syntax-ns#"
   xmlns:svg="http://www.w3.org/2000/svg"
   xmlns="http://www.w3.org/2000/svg"
   xmlns:sodipodi="http://sodipodi.sourceforge.net/DTD/sodipodi-0.dtd"
   xmlns:inkscape="http://www.inkscape.org/namespaces/inkscape"
   id="svg2"
   version="1.1"
   inkscape:version="0.91 r13725"
   xml:space="preserve"
   width="268"
   height="65"
   viewBox="0 0 268 65"
   sodipodi:docname="pentaho HDS logo CMYK.svg"><metadata
     id="metadata8"><rdf:RDF><cc:Work
         rdf:about=""><dc:format>image/svg+xml</dc:format><dc:type
           rdf:resource="http://purl.org/dc/dcmitype/StillImage" /><dc:title></dc:title></cc:Work></rdf:RDF></metadata><defs
     id="defs6"><clipPath
       clipPathUnits="userSpaceOnUse"
       id="clipPath16"><path
         d="m 0,152 309.583,0 0,-152 L 0,0 0,152 Z"
         id="path18"
         inkscape:connector-curvature="0" /></clipPath></defs><sodipodi:namedview
     pagecolor="#ffffff"
     bordercolor="#666666"
     borderopacity="1"
     objecttolerance="10"
     gridtolerance="10"
     guidetolerance="10"
     inkscape:pageopacity="0"
     inkscape:pageshadow="2"
     inkscape:window-width="1706"
     inkscape:window-height="1051"
     id="namedview4"
     showgrid="false"
     inkscape:zoom="4.1345938"
     inkscape:cx="150.25602"
     inkscape:cy="75.991196"
     inkscape:window-x="0"
     inkscape:window-y="0"
     inkscape:window-maximized="0"
     inkscape:current-layer="g10" /><g
     id="g10"
     inkscape:groupmode="layer"
     inkscape:label="pentaho HDS logo CMYK"
     transform="matrix(1.25,0,0,-1.25,0,65)"><g
       id="g12"
       transform="matrix(0.88091602,0,0,0.88091602,-26.869594,-43.223258)"><g
         id="g14"
         clip-path="url(#clipPath16)"><g
           id="g20"
           transform="translate(118.6773,61.4834)"><path
             d="M 0,0 -0.682,1.982 C -0.732,2.115 -0.801,2.324 -0.889,2.61 -0.977,2.896 -1.038,3.104 -1.071,3.237 -1.16,2.829 -1.292,2.382 -1.464,1.898 L -2.122,0 0,0 Z m 1.041,-3.048 -0.727,2.022 -2.784,0 -0.713,-2.022 -1.254,0 2.724,7.312 1.295,0 2.724,-7.312 -1.265,0 z"
             style="fill:#303843;fill-opacity:1;fill-rule:nonzero;stroke:none"
             id="path22"
             inkscape:connector-curvature="0" /></g><g
           id="g24"
           transform="translate(130.3364,58.4355)"><path
             d="m 0,0 -1.195,0 0,3.282 -3.357,0 0,-3.282 -1.19,0 0,7.281 1.19,0 0,-2.978 3.357,0 0,2.978 L 0,7.281 0,0 Z"
             style="fill:#303843;fill-opacity:1;fill-rule:nonzero;stroke:none"
             id="path26"
             inkscape:connector-curvature="0" /></g><path
           d="m 133.3,58.436 -1.17,0 0,5.508 1.17,0 0,-5.508 z m -1.24,6.967 c 0,0.209 0.057,0.37 0.172,0.483 0.114,0.113 0.278,0.17 0.49,0.17 0.206,0 0.366,-0.057 0.481,-0.17 0.114,-0.113 0.172,-0.274 0.172,-0.483 0,-0.199 -0.058,-0.356 -0.172,-0.47 -0.115,-0.115 -0.275,-0.172 -0.481,-0.172 -0.212,0 -0.376,0.057 -0.49,0.172 -0.115,0.114 -0.172,0.271 -0.172,0.47"
           style="fill:#303843;fill-opacity:1;fill-rule:nonzero;stroke:none"
           id="path28"
           inkscape:connector-curvature="0" /><g
           id="g30"
           transform="translate(137.0254,59.2822)"><path
             d="m 0,0 c 0.286,0 0.571,0.045 0.856,0.134 l 0,-0.881 C 0.727,-0.804 0.561,-0.851 0.356,-0.889 0.152,-0.927 -0.06,-0.946 -0.279,-0.946 c -1.109,0 -1.663,0.584 -1.663,1.753 l 0,2.968 -0.752,0 0,0.518 0.806,0.429 0.399,1.165 0.722,0 0,-1.225 1.569,0 0,-0.887 -1.569,0 0,-2.948 c 0,-0.283 0.071,-0.491 0.212,-0.625 C -0.414,0.067 -0.229,0 0,0"
             style="fill:#303843;fill-opacity:1;fill-rule:nonzero;stroke:none"
             id="path32"
             inkscape:connector-curvature="0" /></g><g
           id="g34"
           transform="translate(140.686,59.2324)"><path
             d="M 0,0 C 0.425,0 0.766,0.119 1.023,0.356 1.281,0.593 1.41,0.926 1.41,1.354 l 0,0.479 -0.708,-0.03 C 0.151,1.783 -0.25,1.691 -0.5,1.526 -0.751,1.362 -0.876,1.111 -0.876,0.772 c 0,-0.246 0.072,-0.436 0.219,-0.57 C -0.511,0.067 -0.292,0 0,0 m 1.743,-0.797 -0.234,0.767 -0.04,0 C 1.204,-0.365 0.937,-0.594 0.667,-0.715 0.398,-0.836 0.053,-0.896 -0.369,-0.896 c -0.541,0 -0.963,0.146 -1.267,0.438 -0.304,0.292 -0.456,0.705 -0.456,1.24 0,0.568 0.211,0.996 0.633,1.285 0.421,0.289 1.064,0.446 1.927,0.473 l 0.951,0.03 0,0.294 C 1.419,3.216 1.337,3.479 1.173,3.653 1.009,3.828 0.754,3.915 0.408,3.915 0.126,3.915 -0.145,3.873 -0.403,3.79 -0.663,3.707 -0.912,3.609 -1.15,3.496 l -0.379,0.837 c 0.299,0.156 0.626,0.275 0.981,0.356 0.356,0.082 0.691,0.122 1.006,0.122 0.701,0 1.229,-0.153 1.586,-0.458 C 2.401,4.047 2.58,3.568 2.58,2.914 l 0,-3.711 -0.837,0 z"
             style="fill:#303843;fill-opacity:1;fill-rule:nonzero;stroke:none"
             id="path36"
             inkscape:connector-curvature="0" /></g><g
           id="g38"
           transform="translate(146.7129,58.3359)"><path
             d="m 0,0 c -0.833,0 -1.467,0.243 -1.9,0.729 -0.433,0.487 -0.65,1.185 -0.65,2.095 0,0.926 0.226,1.638 0.68,2.136 0.453,0.498 1.108,0.748 1.965,0.748 0.58,0 1.103,-0.108 1.569,-0.324 L 1.31,4.442 C 0.815,4.635 0.407,4.731 0.084,4.731 c -0.953,0 -1.429,-0.632 -1.429,-1.897 0,-0.618 0.119,-1.082 0.356,-1.392 0.238,-0.311 0.586,-0.466 1.044,-0.466 0.521,0 1.014,0.129 1.479,0.389 l 0,-1.021 C 1.325,0.221 1.102,0.133 0.864,0.08 0.626,0.027 0.338,0 0,0"
             style="fill:#303843;fill-opacity:1;fill-rule:nonzero;stroke:none"
             id="path40"
             inkscape:connector-curvature="0" /></g><g
           id="g42"
           transform="translate(154.1841,58.4355)"><path
             d="m 0,0 -1.175,0 0,3.387 c 0,0.425 -0.086,0.742 -0.257,0.951 -0.171,0.209 -0.443,0.314 -0.814,0.314 -0.491,0 -0.853,-0.147 -1.083,-0.441 C -3.56,3.917 -3.675,3.425 -3.675,2.734 l 0,-2.734 -1.171,0 0,7.75 1.171,0 0,-1.968 c 0,-0.315 -0.02,-0.652 -0.06,-1.011 l 0.074,0 c 0.16,0.266 0.382,0.472 0.665,0.618 0.284,0.146 0.616,0.219 0.994,0.219 C -0.667,5.608 0,4.936 0,3.591 L 0,0 Z"
             style="fill:#303843;fill-opacity:1;fill-rule:nonzero;stroke:none"
             id="path44"
             inkscape:connector-curvature="0" /></g><path
           d="m 156.779,58.436 -1.17,0 0,5.508 1.17,0 0,-5.508 z m -1.24,6.967 c 0,0.209 0.057,0.37 0.172,0.483 0.114,0.113 0.278,0.17 0.49,0.17 0.206,0 0.366,-0.057 0.481,-0.17 0.114,-0.113 0.172,-0.274 0.172,-0.483 0,-0.199 -0.058,-0.356 -0.172,-0.47 -0.115,-0.115 -0.275,-0.172 -0.481,-0.172 -0.212,0 -0.376,0.057 -0.49,0.172 -0.115,0.114 -0.172,0.271 -0.172,0.47"
           style="fill:#303843;fill-opacity:1;fill-rule:nonzero;stroke:none"
           id="path46"
           inkscape:connector-curvature="0" /><g
           id="g48"
           transform="translate(165.8931,62.106)"><path
             d="m 0,0 c 0,1.743 -0.815,2.615 -2.445,2.615 l -1.032,0 0,-5.284 0.847,0 C -0.876,-2.669 0,-1.78 0,0 M 1.255,0.04 C 1.255,-1.162 0.921,-2.081 0.254,-2.717 -0.414,-3.353 -1.375,-3.67 -2.63,-3.67 l -2.037,0 0,7.281 2.251,0 c 1.159,0 2.061,-0.312 2.705,-0.936 C 0.933,2.05 1.255,1.172 1.255,0.04"
             style="fill:#303843;fill-opacity:1;fill-rule:nonzero;stroke:none"
             id="path50"
             inkscape:connector-curvature="0" /></g><g
           id="g52"
           transform="translate(170.0869,59.2324)"><path
             d="M 0,0 C 0.425,0 0.766,0.119 1.023,0.356 1.281,0.593 1.41,0.926 1.41,1.354 l 0,0.479 -0.708,-0.03 C 0.151,1.783 -0.25,1.691 -0.5,1.526 -0.751,1.362 -0.876,1.111 -0.876,0.772 c 0,-0.246 0.072,-0.436 0.219,-0.57 C -0.511,0.067 -0.292,0 0,0 m 1.743,-0.797 -0.234,0.767 -0.04,0 C 1.204,-0.365 0.937,-0.594 0.667,-0.715 0.398,-0.836 0.053,-0.896 -0.369,-0.896 c -0.541,0 -0.963,0.146 -1.267,0.438 -0.304,0.292 -0.456,0.705 -0.456,1.24 0,0.568 0.211,0.996 0.633,1.285 0.421,0.289 1.064,0.446 1.927,0.473 l 0.951,0.03 0,0.294 C 1.419,3.216 1.337,3.479 1.173,3.653 1.009,3.828 0.754,3.915 0.408,3.915 0.126,3.915 -0.145,3.873 -0.403,3.79 -0.663,3.707 -0.912,3.609 -1.15,3.496 l -0.379,0.837 c 0.299,0.156 0.626,0.275 0.981,0.356 0.356,0.082 0.691,0.122 1.006,0.122 0.701,0 1.229,-0.153 1.586,-0.458 C 2.401,4.047 2.58,3.568 2.58,2.914 l 0,-3.711 -0.837,0 z"
             style="fill:#303843;fill-opacity:1;fill-rule:nonzero;stroke:none"
             id="path54"
             inkscape:connector-curvature="0" /></g><g
           id="g56"
           transform="translate(176.1484,59.2822)"><path
             d="m 0,0 c 0.286,0 0.571,0.045 0.856,0.134 l 0,-0.881 C 0.727,-0.804 0.561,-0.851 0.356,-0.889 0.152,-0.927 -0.06,-0.946 -0.279,-0.946 c -1.109,0 -1.663,0.584 -1.663,1.753 l 0,2.968 -0.752,0 0,0.518 0.806,0.429 0.399,1.165 0.722,0 0,-1.225 1.569,0 0,-0.887 -1.569,0 0,-2.948 c 0,-0.283 0.071,-0.491 0.212,-0.625 C -0.414,0.067 -0.229,0 0,0"
             style="fill:#303843;fill-opacity:1;fill-rule:nonzero;stroke:none"
             id="path58"
             inkscape:connector-curvature="0" /></g><g
           id="g60"
           transform="translate(179.8091,59.2324)"><path
             d="M 0,0 C 0.425,0 0.766,0.119 1.023,0.356 1.281,0.593 1.41,0.926 1.41,1.354 l 0,0.479 -0.708,-0.03 C 0.151,1.783 -0.25,1.691 -0.5,1.526 -0.751,1.362 -0.876,1.111 -0.876,0.772 c 0,-0.246 0.072,-0.436 0.219,-0.57 C -0.511,0.067 -0.292,0 0,0 m 1.743,-0.797 -0.234,0.767 -0.04,0 C 1.204,-0.365 0.937,-0.594 0.667,-0.715 0.398,-0.836 0.053,-0.896 -0.369,-0.896 c -0.541,0 -0.963,0.146 -1.267,0.438 -0.304,0.292 -0.456,0.705 -0.456,1.24 0,0.568 0.211,0.996 0.633,1.285 0.421,0.289 1.064,0.446 1.927,0.473 l 0.951,0.03 0,0.294 C 1.419,3.216 1.337,3.479 1.173,3.653 1.009,3.828 0.754,3.915 0.408,3.915 0.126,3.915 -0.145,3.873 -0.403,3.79 -0.663,3.707 -0.912,3.609 -1.15,3.496 l -0.379,0.837 c 0.299,0.156 0.626,0.275 0.981,0.356 0.356,0.082 0.691,0.122 1.006,0.122 0.701,0 1.229,-0.153 1.586,-0.458 C 2.401,4.047 2.58,3.568 2.58,2.914 l 0,-3.711 -0.837,0 z"
             style="fill:#303843;fill-opacity:1;fill-rule:nonzero;stroke:none"
             id="path62"
             inkscape:connector-curvature="0" /></g><g
           id="g64"
           transform="translate(190.791,60.4126)"><path
             d="m 0,0 c 0,-0.647 -0.234,-1.155 -0.702,-1.524 -0.468,-0.369 -1.114,-0.553 -1.938,-0.553 -0.823,0 -1.497,0.128 -2.022,0.384 l 0,1.126 c 0.332,-0.157 0.685,-0.28 1.059,-0.369 0.373,-0.09 0.721,-0.135 1.043,-0.135 0.472,0 0.819,0.09 1.043,0.269 0.225,0.179 0.337,0.42 0.337,0.722 0,0.273 -0.103,0.503 -0.309,0.693 -0.206,0.189 -0.631,0.413 -1.275,0.672 -0.664,0.269 -1.132,0.576 -1.404,0.922 -0.273,0.345 -0.409,0.76 -0.409,1.245 0,0.607 0.216,1.086 0.647,1.434 0.432,0.349 1.012,0.523 1.739,0.523 0.697,0 1.391,-0.153 2.082,-0.458 L -0.488,3.979 c -0.647,0.273 -1.225,0.409 -1.733,0.409 -0.385,0 -0.677,-0.084 -0.877,-0.252 -0.199,-0.167 -0.298,-0.389 -0.298,-0.664 0,-0.19 0.039,-0.351 0.119,-0.486 0.08,-0.134 0.211,-0.261 0.393,-0.381 0.183,-0.12 0.511,-0.277 0.987,-0.473 0.534,-0.223 0.926,-0.43 1.175,-0.623 0.249,-0.192 0.431,-0.41 0.548,-0.652 C -0.058,0.614 0,0.329 0,0"
             style="fill:#303843;fill-opacity:1;fill-rule:nonzero;stroke:none"
             id="path66"
             inkscape:connector-curvature="0" /></g><g
           id="g68"
           transform="translate(191.2393,63.9438)"><path
             d="m 0,0 1.275,0 1.121,-3.123 c 0.169,-0.445 0.282,-0.863 0.338,-1.255 l 0.04,0 c 0.03,0.183 0.085,0.404 0.164,0.665 C 3.018,-3.452 3.44,-2.214 4.204,0 L 5.469,0 3.113,-6.24 C 2.685,-7.386 1.971,-7.958 0.971,-7.958 c -0.259,0 -0.511,0.027 -0.757,0.084 l 0,0.926 c 0.176,-0.039 0.377,-0.059 0.603,-0.059 0.564,0 0.961,0.327 1.19,0.981 L 2.211,-5.508 0,0 Z"
             style="fill:#303843;fill-opacity:1;fill-rule:nonzero;stroke:none"
             id="path70"
             inkscape:connector-curvature="0" /></g><g
           id="g72"
           transform="translate(201.2451,60.0044)"><path
             d="m 0,0 c 0,-0.538 -0.196,-0.951 -0.587,-1.238 -0.392,-0.287 -0.954,-0.43 -1.684,-0.43 -0.734,0 -1.323,0.111 -1.768,0.333 l 0,1.011 c 0.647,-0.299 1.25,-0.448 1.808,-0.448 0.72,0 1.081,0.217 1.081,0.652 0,0.14 -0.04,0.256 -0.12,0.349 -0.08,0.093 -0.211,0.189 -0.394,0.289 -0.182,0.1 -0.436,0.212 -0.761,0.338 -0.635,0.247 -1.064,0.492 -1.288,0.738 -0.224,0.245 -0.336,0.564 -0.336,0.956 0,0.471 0.19,0.838 0.57,1.098 0.38,0.261 0.897,0.391 1.552,0.391 0.647,0 1.26,-0.131 1.838,-0.393 L -0.468,2.764 c -0.594,0.246 -1.094,0.369 -1.499,0.369 -0.618,0 -0.927,-0.176 -0.927,-0.528 0,-0.173 0.081,-0.319 0.242,-0.438 C -2.491,2.047 -2.14,1.883 -1.599,1.673 -1.144,1.498 -0.813,1.336 -0.607,1.19 -0.402,1.044 -0.249,0.875 -0.149,0.685 -0.05,0.494 0,0.266 0,0"
             style="fill:#303843;fill-opacity:1;fill-rule:nonzero;stroke:none"
             id="path74"
             inkscape:connector-curvature="0" /></g><g
           id="g76"
           transform="translate(204.562,59.2822)"><path
             d="m 0,0 c 0.286,0 0.571,0.045 0.856,0.134 l 0,-0.881 C 0.727,-0.804 0.561,-0.851 0.356,-0.889 0.152,-0.927 -0.06,-0.946 -0.279,-0.946 c -1.109,0 -1.663,0.584 -1.663,1.753 l 0,2.968 -0.752,0 0,0.518 0.806,0.429 0.399,1.165 0.722,0 0,-1.225 1.569,0 0,-0.887 -1.569,0 0,-2.948 c 0,-0.283 0.071,-0.491 0.212,-0.625 C -0.414,0.067 -0.229,0 0,0"
             style="fill:#303843;fill-opacity:1;fill-rule:nonzero;stroke:none"
             id="path78"
             inkscape:connector-curvature="0" /></g><g
           id="g80"
           transform="translate(208.7109,63.1572)"><path
             d="M 0,0 C -0.372,0 -0.67,-0.118 -0.894,-0.354 -1.118,-0.59 -1.252,-0.933 -1.295,-1.385 l 2.5,0 C 1.198,-0.93 1.089,-0.585 0.876,-0.352 0.664,-0.117 0.372,0 0,0 m 0.214,-4.821 c -0.857,0 -1.526,0.25 -2.01,0.749 -0.483,0.5 -0.725,1.188 -0.725,2.065 0,0.9 0.225,1.607 0.673,2.121 0.448,0.515 1.064,0.772 1.848,0.772 0.727,0 1.301,-0.22 1.723,-0.662 0.422,-0.442 0.632,-1.049 0.632,-1.823 l 0,-0.632 -3.67,0 c 0.017,-0.535 0.161,-0.946 0.433,-1.233 0.273,-0.287 0.656,-0.431 1.151,-0.431 0.325,0 0.628,0.031 0.909,0.092 0.28,0.062 0.582,0.164 0.904,0.306 l 0,-0.951 C 1.796,-4.584 1.507,-4.68 1.215,-4.737 0.923,-4.793 0.589,-4.821 0.214,-4.821"
             style="fill:#303843;fill-opacity:1;fill-rule:nonzero;stroke:none"
             id="path82"
             inkscape:connector-curvature="0" /></g><g
           id="g84"
           transform="translate(216.8345,58.4355)"><path
             d="m 0,0 -1.175,0 0,3.396 c 0,0.422 -0.08,0.737 -0.24,0.944 -0.159,0.208 -0.408,0.312 -0.747,0.312 -0.451,0 -0.782,-0.147 -0.993,-0.441 C -3.366,3.917 -3.471,3.428 -3.471,2.744 l 0,-2.744 -1.171,0 0,5.508 0.916,0 0.165,-0.722 0.06,0 c 0.152,0.262 0.374,0.465 0.665,0.608 0.29,0.143 0.61,0.214 0.959,0.214 0.846,0 1.407,-0.289 1.683,-0.867 l 0.079,0 C 0.048,5.014 0.277,5.226 0.573,5.379 0.868,5.532 1.207,5.608 1.589,5.608 2.246,5.608 2.725,5.442 3.025,5.11 3.326,4.778 3.477,4.271 3.477,3.591 l 0,-3.591 -1.171,0 0,3.396 C 2.306,3.818 2.226,4.133 2.064,4.34 1.903,4.548 1.653,4.652 1.315,4.652 0.86,4.652 0.527,4.51 0.316,4.226 0.105,3.942 0,3.506 0,2.918 L 0,0 Z"
             style="fill:#303843;fill-opacity:1;fill-rule:nonzero;stroke:none"
             id="path86"
             inkscape:connector-curvature="0" /></g><g
           id="g88"
           transform="translate(225.4409,60.0044)"><path
             d="m 0,0 c 0,-0.538 -0.196,-0.951 -0.587,-1.238 -0.392,-0.287 -0.954,-0.43 -1.684,-0.43 -0.734,0 -1.323,0.111 -1.768,0.333 l 0,1.011 c 0.647,-0.299 1.25,-0.448 1.808,-0.448 0.72,0 1.081,0.217 1.081,0.652 0,0.14 -0.04,0.256 -0.12,0.349 -0.08,0.093 -0.211,0.189 -0.394,0.289 -0.182,0.1 -0.436,0.212 -0.761,0.338 -0.635,0.247 -1.064,0.492 -1.288,0.738 -0.224,0.245 -0.336,0.564 -0.336,0.956 0,0.471 0.19,0.838 0.57,1.098 0.38,0.261 0.897,0.391 1.552,0.391 0.647,0 1.26,-0.131 1.838,-0.393 L -0.468,2.764 c -0.594,0.246 -1.094,0.369 -1.499,0.369 -0.618,0 -0.927,-0.176 -0.927,-0.528 0,-0.173 0.081,-0.319 0.242,-0.438 C -2.491,2.047 -2.14,1.883 -1.599,1.673 -1.144,1.498 -0.813,1.336 -0.607,1.19 -0.402,1.044 -0.249,0.875 -0.149,0.685 -0.05,0.494 0,0.266 0,0"
             style="fill:#303843;fill-opacity:1;fill-rule:nonzero;stroke:none"
             id="path90"
             inkscape:connector-curvature="0" /></g><g
           id="g92"
           transform="translate(232.3735,64.8008)"><path
             d="m 0,0 c -0.684,0 -1.222,-0.243 -1.614,-0.728 -0.391,-0.484 -0.587,-1.153 -0.587,-2.006 0,-0.894 0.188,-1.569 0.565,-2.028 0.377,-0.458 0.922,-0.687 1.636,-0.687 0.309,0 0.607,0.031 0.896,0.093 0.29,0.061 0.59,0.14 0.902,0.236 l 0,-1.021 C 1.227,-6.357 0.58,-6.465 -0.145,-6.465 c -1.065,0 -1.884,0.323 -2.455,0.969 -0.571,0.645 -0.857,1.569 -0.857,2.771 0,0.758 0.139,1.42 0.416,1.988 0.278,0.568 0.679,1.003 1.203,1.304 0.525,0.303 1.141,0.454 1.848,0.454 0.744,0 1.431,-0.156 2.062,-0.468 L 1.644,-0.438 C 1.398,-0.322 1.138,-0.22 0.864,-0.132 0.59,-0.044 0.302,0 0,0"
             style="fill:#303843;fill-opacity:1;fill-rule:nonzero;stroke:none"
             id="path94"
             inkscape:connector-curvature="0" /></g><g
           id="g96"
           transform="translate(236.0845,61.1997)"><path
             d="m 0,0 c 0,-1.272 0.47,-1.908 1.409,-1.908 0.93,0 1.395,0.636 1.395,1.908 0,1.258 -0.468,1.888 -1.405,1.888 C 0.908,1.888 0.552,1.725 0.331,1.399 0.11,1.074 0,0.607 0,0 m 4.009,0 c 0,-0.9 -0.231,-1.602 -0.692,-2.107 -0.462,-0.504 -1.104,-0.757 -1.927,-0.757 -0.515,0 -0.97,0.116 -1.365,0.349 -0.396,0.232 -0.699,0.566 -0.912,1.001 -0.212,0.435 -0.319,0.939 -0.319,1.514 0,0.893 0.23,1.59 0.688,2.092 0.458,0.501 1.104,0.752 1.937,0.752 0.797,0 1.428,-0.257 1.893,-0.77 C 3.777,1.562 4.009,0.87 4.009,0"
             style="fill:#303843;fill-opacity:1;fill-rule:nonzero;stroke:none"
             id="path98"
             inkscape:connector-curvature="0" /></g><g
           id="g100"
           transform="translate(245.6724,58.4355)"><path
             d="m 0,0 -1.175,0 0,3.396 c 0,0.422 -0.08,0.737 -0.24,0.944 -0.159,0.208 -0.408,0.312 -0.747,0.312 -0.451,0 -0.782,-0.147 -0.993,-0.441 C -3.366,3.917 -3.471,3.428 -3.471,2.744 l 0,-2.744 -1.171,0 0,5.508 0.916,0 0.165,-0.722 0.06,0 c 0.152,0.262 0.374,0.465 0.665,0.608 0.29,0.143 0.61,0.214 0.959,0.214 0.846,0 1.407,-0.289 1.683,-0.867 l 0.079,0 C 0.048,5.014 0.277,5.226 0.573,5.379 0.868,5.532 1.207,5.608 1.589,5.608 2.246,5.608 2.725,5.442 3.025,5.11 3.326,4.778 3.477,4.271 3.477,3.591 l 0,-3.591 -1.171,0 0,3.396 C 2.306,3.818 2.226,4.133 2.064,4.34 1.903,4.548 1.653,4.652 1.315,4.652 0.86,4.652 0.527,4.51 0.316,4.226 0.105,3.942 0,3.506 0,2.918 L 0,0 Z"
             style="fill:#303843;fill-opacity:1;fill-rule:nonzero;stroke:none"
             id="path102"
             inkscape:connector-curvature="0" /></g><g
           id="g104"
           transform="translate(253.0376,63.0874)"><path
             d="m 0,0 c -0.465,0 -0.804,-0.136 -1.019,-0.409 -0.213,-0.272 -0.32,-0.707 -0.32,-1.304 l 0,-0.175 c 0,-0.671 0.106,-1.156 0.318,-1.456 0.212,-0.301 0.56,-0.451 1.041,-0.451 0.405,0 0.717,0.166 0.937,0.498 0.219,0.332 0.328,0.805 0.328,1.419 0,0.618 -0.109,1.085 -0.326,1.402 C 0.741,-0.159 0.422,0 0,0 m 0.284,-4.751 c -0.697,0 -1.239,0.25 -1.623,0.751 l -0.07,0 c 0.046,-0.464 0.07,-0.747 0.07,-0.846 l 0,-2.256 -1.171,0 0,7.958 0.947,0 C -1.537,0.753 -1.482,0.508 -1.399,0.12 l 0.06,0 c 0.365,0.557 0.913,0.836 1.643,0.836 0.687,0 1.223,-0.249 1.606,-0.747 0.384,-0.498 0.575,-1.197 0.575,-2.097 0,-0.9 -0.194,-1.602 -0.585,-2.107 C 1.51,-4.499 0.971,-4.751 0.284,-4.751"
             style="fill:#303843;fill-opacity:1;fill-rule:nonzero;stroke:none"
             id="path106"
             inkscape:connector-curvature="0" /></g><g
           id="g108"
           transform="translate(258.1777,59.2324)"><path
             d="M 0,0 C 0.425,0 0.766,0.119 1.023,0.356 1.281,0.593 1.41,0.926 1.41,1.354 l 0,0.479 -0.708,-0.03 C 0.151,1.783 -0.25,1.691 -0.5,1.526 -0.751,1.362 -0.876,1.111 -0.876,0.772 c 0,-0.246 0.072,-0.436 0.219,-0.57 C -0.511,0.067 -0.292,0 0,0 m 1.743,-0.797 -0.234,0.767 -0.04,0 C 1.204,-0.365 0.937,-0.594 0.667,-0.715 0.398,-0.836 0.053,-0.896 -0.369,-0.896 c -0.541,0 -0.963,0.146 -1.267,0.438 -0.304,0.292 -0.456,0.705 -0.456,1.24 0,0.568 0.211,0.996 0.633,1.285 0.421,0.289 1.064,0.446 1.927,0.473 l 0.951,0.03 0,0.294 C 1.419,3.216 1.337,3.479 1.173,3.653 1.009,3.828 0.754,3.915 0.408,3.915 0.126,3.915 -0.145,3.873 -0.403,3.79 -0.663,3.707 -0.912,3.609 -1.15,3.496 l -0.379,0.837 c 0.299,0.156 0.626,0.275 0.981,0.356 0.356,0.082 0.691,0.122 1.006,0.122 0.701,0 1.229,-0.153 1.586,-0.458 C 2.401,4.047 2.58,3.568 2.58,2.914 l 0,-3.711 -0.837,0 z"
             style="fill:#303843;fill-opacity:1;fill-rule:nonzero;stroke:none"
             id="path110"
             inkscape:connector-curvature="0" /></g><g
           id="g112"
           transform="translate(266.8296,58.4355)"><path
             d="m 0,0 -1.175,0 0,3.387 c 0,0.425 -0.086,0.742 -0.257,0.951 -0.171,0.209 -0.443,0.314 -0.814,0.314 -0.495,0 -0.857,-0.147 -1.086,-0.439 C -3.561,3.921 -3.675,3.432 -3.675,2.744 l 0,-2.744 -1.171,0 0,5.508 0.916,0 0.165,-0.722 0.059,0 c 0.166,0.262 0.402,0.465 0.708,0.608 0.305,0.143 0.644,0.214 1.016,0.214 C -0.661,5.608 0,4.936 0,3.591 L 0,0 Z"
             style="fill:#303843;fill-opacity:1;fill-rule:nonzero;stroke:none"
             id="path114"
             inkscape:connector-curvature="0" /></g><g
           id="g116"
           transform="translate(267.5703,63.9438)"><path
             d="m 0,0 1.275,0 1.121,-3.123 c 0.169,-0.445 0.281,-0.863 0.338,-1.255 l 0.04,0 c 0.03,0.183 0.085,0.404 0.165,0.665 0.08,0.261 0.5,1.499 1.264,3.713 L 5.468,0 3.113,-6.24 C 2.685,-7.386 1.97,-7.958 0.971,-7.958 c -0.259,0 -0.511,0.027 -0.757,0.084 l 0,0.926 c 0.176,-0.039 0.377,-0.059 0.603,-0.059 0.564,0 0.961,0.327 1.19,0.981 L 2.211,-5.508 0,0 Z"
             style="fill:#303843;fill-opacity:1;fill-rule:nonzero;stroke:none"
             id="path118"
             inkscape:connector-curvature="0" /></g><g
           id="g120"
           transform="translate(247.6309,85.8099)"><path
             d="M 0,0 0.314,0 C 0.67,0 0.973,0.13 0.973,0.465 0.973,0.703 0.8,0.94 0.314,0.94 0.173,0.94 0.075,0.93 0,0.919 L 0,0 Z m 0,-1.501 -0.433,0 0,2.712 c 0.228,0.033 0.443,0.065 0.768,0.065 0.41,0 0.68,-0.086 0.843,-0.206 0.162,-0.118 0.248,-0.303 0.248,-0.561 0,-0.357 -0.238,-0.573 -0.53,-0.66 l 0,-0.021 c 0.239,-0.044 0.401,-0.26 0.455,-0.66 0.065,-0.421 0.13,-0.584 0.173,-0.669 l -0.454,0 c -0.065,0.085 -0.13,0.334 -0.184,0.69 -0.065,0.347 -0.238,0.476 -0.584,0.476 l -0.302,0 0,-1.166 z m 0.453,3.469 c -1.069,0 -1.944,-0.919 -1.944,-2.053 0,-1.158 0.875,-2.065 1.956,-2.065 1.081,-0.011 1.945,0.907 1.945,2.053 0,1.146 -0.864,2.065 -1.945,2.065 l -0.012,0 z m 0.012,0.378 c 1.329,0 2.388,-1.081 2.388,-2.431 0,-1.373 -1.059,-2.444 -2.4,-2.444 -1.329,0 -2.409,1.071 -2.409,2.444 0,1.35 1.08,2.431 2.409,2.431 l 0.012,0 z"
             style="fill:#303843;fill-opacity:1;fill-rule:nonzero;stroke:none"
             id="path122"
             inkscape:connector-curvature="0" /></g><g
           id="g124"
           transform="translate(111.1776,86.0431)"><path
             d="m 0,0 c -3.203,0 -5.375,-2.713 -5.429,-5.862 0,-3.257 2.117,-6.134 5.429,-6.134 3.203,0 5.428,2.713 5.428,5.97 C 5.428,-2.66 3.203,0 0,0 m 0.923,-15.851 c -2.769,0 -5.049,1.412 -6.352,3.638 l 0,-15.422 -4.451,0 0,30.948 4.451,0 0,-3.149 c 1.303,2.226 3.529,3.691 6.298,3.691 5.591,0 9.065,-4.669 9.065,-9.825 0,-5.159 -3.529,-9.881 -9.011,-9.881"
             style="fill:#303843;fill-opacity:1;fill-rule:nonzero;stroke:none"
             id="path126"
             inkscape:connector-curvature="0" /></g><g
           id="g128"
           transform="translate(128.286,81.6462)"><path
             d="M 0,0 10.206,0 C 9.989,2.715 7.871,5.103 5.103,5.103 2.279,5.103 0.217,2.715 0,0 m 5.103,8.307 c 6.188,0 9.336,-4.669 9.336,-9.88 0,-0.273 0,-0.815 -0.053,-1.087 l -14.332,0 c 0,-3.257 2.66,-5.428 5.972,-5.428 2.334,0 4.233,1.031 5.809,2.335 l 2.279,-2.388 c -1.846,-1.576 -4.18,-3.313 -8.632,-3.313 -6.569,0 -10.042,4.722 -10.042,9.881 0,5.156 3.473,9.88 9.663,9.88"
             style="fill:#303843;fill-opacity:1;fill-rule:nonzero;stroke:none"
             id="path130"
             inkscape:connector-curvature="0" /></g><g
           id="g132"
           transform="translate(150.4251,70.9536)"><path
             d="m 0,0 -4.505,0 0,18.402 4.505,0 0,-2.498 C 0.923,17.641 2.988,19 5.484,19 c 5.483,0 7.707,-3.53 7.707,-8.958 l 0,-10.042 -4.45,0 0,10.042 c 0,3.746 -1.684,5.32 -4.344,5.32 C 2.009,15.362 0.055,13.788 0,10.206 L 0,0 Z"
             style="fill:#303843;fill-opacity:1;fill-rule:nonzero;stroke:none"
             id="path134"
             inkscape:connector-curvature="0" /></g><g
           id="g136"
           transform="translate(168.9334,81.9713)"><path
             d="m 0,0 0,3.694 -2.607,0 0,3.691 2.607,0 0,6.242 4.505,0 0,-6.242 3.908,0 0,-3.691 -3.908,0 0,-3.583 c 0,-5.864 0.273,-7.763 2.388,-7.763 0.381,0 0.87,0.109 1.303,0.162 l 0.543,-3.419 C 7.438,-11.345 6.459,-11.562 5.592,-11.562 0,-11.562 0,-7.599 0,0"
             style="fill:#303843;fill-opacity:1;fill-rule:nonzero;stroke:none"
             id="path138"
             inkscape:connector-curvature="0" /></g><g
           id="g140"
           transform="translate(189.9834,74.1002)"><path
             d="M 0,0 C 3.202,0 5.375,2.771 5.375,5.973 5.375,9.175 3.202,11.998 0,11.998 -3.202,11.998 -5.428,9.23 -5.428,5.973 -5.428,2.607 -3.202,0 0,0 m -0.923,15.853 c 2.824,0 4.995,-1.467 6.351,-3.746 l 0,3.149 4.397,0 0,-18.403 -4.397,0 0,2.93 c -1.303,-2.224 -3.527,-3.691 -6.295,-3.691 -5.592,0 -9.067,4.669 -9.067,9.825 0,5.159 3.528,9.936 9.011,9.936"
             style="fill:#303843;fill-opacity:1;fill-rule:nonzero;stroke:none"
             id="path142"
             inkscape:connector-curvature="0" /></g><g
           id="g144"
           transform="translate(208.2411,70.9536)"><path
             d="m 0,0 -4.452,0 0,34.83 4.452,0 0,-18.926 C 0.976,17.641 2.985,19 5.481,19 c 5.537,0 7.763,-3.53 7.763,-8.958 l 0,-10.042 -4.505,0 0,10.042 c 0,3.746 -1.682,5.32 -4.289,5.32 C 2.007,15.362 0,13.788 0,10.206 L 0,0 Z"
             style="fill:#303843;fill-opacity:1;fill-rule:nonzero;stroke:none"
             id="path146"
             inkscape:connector-curvature="0" /></g><g
           id="g148"
           transform="translate(239.5597,80.1813)"><path
             d="m 0,0 c 0,3.908 -2.39,6.515 -5.484,6.515 -3.04,0 -5.428,-2.607 -5.428,-6.515 0,-4.016 2.335,-6.623 5.428,-6.623 C -2.39,-6.623 0,-4.016 0,0 m -15.364,0 c 0,5.156 3.366,9.772 9.88,9.772 6.568,0 9.934,-4.561 9.934,-9.772 0,-5.211 -3.366,-9.825 -9.934,-9.825 -6.514,0 -9.88,4.667 -9.88,9.825"
             style="fill:#303843;fill-opacity:1;fill-rule:nonzero;stroke:none"
             id="path150"
             inkscape:connector-curvature="0" /></g><g
           id="g152"
           transform="translate(60.5678,91.197)"><path
             d="m 0,0 c -2.125,0 -4.239,-0.386 -6.284,-1.149 -4.859,-2.032 -8.556,-5.849 -10.394,-10.742 -1.996,-5.315 -1.63,-11.44 1.003,-16.807 4.08,-7.572 11.735,-12.104 20.467,-12.104 4.247,0 8.517,1.114 12.35,3.221 6.513,3.863 10.967,10.055 12.53,17.432 1.641,7.747 -0.127,16 -4.851,22.64 -5.775,7.726 -14.722,12.163 -24.539,12.163 -11.04,0 -21.04,-5.496 -26.75,-14.701 -0.564,-0.918 -1.263,-2.055 -1.64,-3.214 -0.057,-0.172 -0.169,-0.707 0.048,-0.964 0.178,-0.211 0.563,-0.266 0.741,-0.266 l 0.002,0 c 0.463,0 0.951,0.464 1.647,1.506 3.388,4.782 7.251,8.263 11.817,10.651 4.047,2.05 8.561,3.132 13.059,3.132 10.675,0 19.893,-5.843 24.056,-15.249 2.445,-5.937 2.424,-12.572 -0.053,-18.216 -2.26,-5.15 -6.4,-9.053 -11.656,-10.99 -1.97,-0.658 -4.003,-0.988 -6.057,-0.988 -7.978,0 -14.502,4.866 -16.236,12.109 -0.789,3.918 0.179,8.154 2.524,11.072 1.388,1.728 3.875,3.802 7.843,3.876 2.49,-0.05 4.991,-1.219 6.391,-2.981 1.053,-1.325 1.432,-2.877 1.096,-4.487 -0.323,-1.236 -1.582,-2.697 -2.671,-2.697 -0.32,0 -0.622,0.114 -0.873,0.33 -0.233,0.246 -0.267,0.51 -0.315,0.877 -0.085,0.66 -0.215,1.66 -1.65,2.193 -0.272,0.079 -0.584,0.124 -0.893,0.124 -2.019,0 -3.434,-1.919 -3.788,-3.815 -0.243,-1.847 0.279,-3.582 1.514,-4.99 1.519,-1.731 4.044,-2.807 6.589,-2.807 0.21,0 0.411,0.005 0.669,0.024 3.107,0.356 5.793,1.981 7.541,4.577 2.041,3.03 2.633,7.093 1.583,10.866 C 12.771,-4.08 6.951,0 0,0"
             style="fill:#1f58ab;fill-opacity:1;fill-rule:nonzero;stroke:none"
             id="path154"
             inkscape:connector-curvature="0" /></g></g></g></g></svg>