<?xml version="1.0" encoding="utf-8"?>
<!-- Generator: Adobe Illustrator 18.1.1, SVG Export Plug-In . SVG Version: 6.00 Build 0)  -->
<svg version="1.1" baseProfile="tiny" id="Layer_1" xmlns="http://www.w3.org/2000/svg" xmlns:xlink="http://www.w3.org/1999/xlink"
	 x="0px" y="0px" width="45px" height="45px" viewBox="0 0 45 45" xml:space="preserve">
<g>
	<polygon fill="#FFFFFF" points="22.5,24.3 29.1,17.8 32.1,17.8 22.5,27.2 12.9,17.8 15.9,17.8 	"/>
</g>
<path fill="#FFFFFF" d="M22.5,44.7c-12.3,0-22.2-10-22.2-22.2s10-22.2,22.2-22.2s22.2,10,22.2,22.2S34.8,44.7,22.5,44.7z M22.5,1.3
	c-11.7,0-21.2,9.5-21.2,21.2c0,11.7,9.5,21.2,21.2,21.2c11.7,0,21.2-9.5,21.2-21.2C43.7,10.8,34.2,1.3,22.5,1.3z"/>
</svg>
