<?xml version="1.0" encoding="utf-8"?>
<!-- Generator: Adobe Illustrator 16.0.4, SVG Export Plug-In . SVG Version: 6.00 Build 0)  -->
<!DOCTYPE svg PUBLIC "-//W3C//DTD SVG 1.1//EN" "http://www.w3.org/Graphics/SVG/1.1/DTD/svg11.dtd">
<svg version="1.1"
	 id="svg2" xmlns:cc="http://creativecommons.org/ns#" xmlns:dc="http://purl.org/dc/elements/1.1/" xmlns:inkscape="http://www.inkscape.org/namespaces/inkscape" xmlns:rdf="http://www.w3.org/1999/02/22-rdf-syntax-ns#" xmlns:sodipodi="http://sodipodi.sourceforge.net/DTD/sodipodi-0.dtd" xmlns:svg="http://www.w3.org/2000/svg" inkscape:version="0.48.2 r9819" sodipodi:docname="Twitter bird.svg"
	 xmlns="http://www.w3.org/2000/svg" xmlns:xlink="http://www.w3.org/1999/xlink" x="0px" y="0px" width="200.001px"
	 height="163.71px" viewBox="0 18.145 200.001 163.71" enable-background="new 0 18.145 200.001 163.71" xml:space="preserve">
<path id="path2991" inkscape:connector-curvature="0" fill="#FFFFFF" d="M125.291,20.076c-18.062,6.503-29.48,23.266-28.18,41.619
	l0.434,7.081l-7.226-0.867c-26.301-3.324-49.278-14.595-68.787-33.526l-9.538-9.393l-2.457,6.937
	c-5.202,15.462-1.878,31.792,8.96,42.775c5.78,6.07,4.479,6.937-5.492,3.324c-3.468-1.156-6.503-2.023-6.792-1.589
	c-1.012,1.012,2.457,14.162,5.203,19.364c3.757,7.224,11.416,14.305,19.798,18.496l7.081,3.324l-8.382,0.145
	c-8.092,0-8.381,0.145-7.515,3.18c2.89,9.393,14.307,19.364,27.023,23.699l8.96,3.035l-7.804,4.624
	c-11.561,6.647-25.145,10.405-38.729,10.694C5.347,163.141,0,163.719,0,164.151c0,1.445,17.63,9.538,27.891,12.718
	c30.781,9.393,67.342,5.346,94.8-10.694c19.509-11.417,39.018-34.104,48.122-56.07c4.913-11.704,9.826-33.091,9.826-43.352
	c0-6.647,0.434-7.515,8.526-15.463c4.769-4.624,9.249-9.682,10.116-11.127c1.445-2.746,1.301-2.746-6.07-0.289
	c-12.283,4.335-14.018,3.757-7.947-2.746c4.479-4.624,9.826-13.006,9.826-15.462c0-0.434-2.168,0.289-4.624,1.59
	c-2.601,1.445-8.382,3.613-12.717,4.913l-7.804,2.457l-7.081-4.769c-3.901-2.601-9.394-5.492-12.283-6.358
	C143.211,17.475,131.939,17.764,125.291,20.076z"/>
</svg>
