<?xml version="1.0" encoding="utf-8"?>
<!-- Generator: Adobe Illustrator 18.1.1, SVG Export Plug-In . SVG Version: 6.00 Build 0)  -->
<svg version="1.1"
	 id="svg2" inkscape:version="0.48.2 r9819" sodipodi:docname="Twitter bird.svg" xmlns:cc="http://creativecommons.org/ns#" xmlns:svg="http://www.w3.org/2000/svg" xmlns:inkscape="http://www.inkscape.org/namespaces/inkscape" xmlns:dc="http://purl.org/dc/elements/1.1/" xmlns:rdf="http://www.w3.org/1999/02/22-rdf-syntax-ns#" xmlns:sodipodi="http://sodipodi.sourceforge.net/DTD/sodipodi-0.dtd"
	 xmlns="http://www.w3.org/2000/svg" xmlns:xlink="http://www.w3.org/1999/xlink" x="0px" y="0px" width="200px" height="163.7px"
	 viewBox="6 -56.7 200 163.7" enable-background="new 6 -56.7 200 163.7" xml:space="preserve">
<g>
	<polygon fill="#FFFFFF" points="171.4,-28.1 171.4,-54 160.3,-54 160.3,-28.1 134.2,-28.1 134.2,-17 160.3,-17 160.3,9.2 
		171.4,9.2 171.4,-17 197.4,-17 197.4,-28.1 	"/>
	<path fill="#FFFFFF" d="M124.6,48c-1.6-2.3-3.5-4.3-5.6-6.3c-2.2-1.9-4.3-3.9-6.6-5.8l-7.5-5.8c-1.1-1-2.3-2.1-3.5-3.4
		c-1.3-1.3-1.8-3.2-1.8-5.5c0-2.3,0.6-4.3,1.8-5.8s2.6-3,3.9-4.3c2.3-1.7,4.3-3.4,6.4-5.3c2.1-1.8,3.9-3.9,5.6-6.3
		c1.7-2.3,3-4.9,3.9-7.8c1-2.9,1.4-6.3,1.4-10.2c0-3.9-0.6-7.3-1.7-10.4s-2.4-5.8-3.9-8c-1.5-2.3-3.1-4.3-4.8-5.8
		c-1.7-1.6-3.1-2.8-4.3-3.8H121l13.4-7.3H91.4c-5.7,0-11.9,0.7-18.4,2.1s-12.9,4.5-18.9,9.3c-4.4,3.9-7.8,8.3-10,13.2
		c-2.3,4.9-3.3,9.8-3.3,14.7c0,4,0.8,8,2.3,11.9c1.5,3.9,3.8,7.4,6.7,10.5s6.5,5.5,10.8,7.3c4.3,1.8,9.2,2.8,14.8,2.8
		c1.1,0,2.3,0,3.3-0.1c1.1-0.1,2.3-0.2,3.3-0.3c-0.6,1.3-1,2.5-1.4,3.7c-0.4,1.2-0.6,2.7-0.6,4.5c0,3.2,0.7,5.8,2,8
		c1.3,2.2,2.8,4.2,4.3,6.2c-2.3,0.2-5.1,0.3-8.3,0.6c-3.2,0.3-6.6,0.8-10.2,1.4c-3.6,0.7-7.3,1.7-10.9,2.8s-7.1,2.8-10.3,4.7
		c-6.1,3.6-10.3,7.8-12.6,12.6c-2.3,4.8-3.4,9-3.4,12.8c0,3.9,0.9,7.6,2.7,11.1c1.8,3.5,4.6,6.7,8.3,9.4s8.4,5,14,6.7
		c5.6,1.7,12.2,2.5,19.7,2.5c8.8,0,16.8-1.2,23.6-3.4c6.8-2.3,12.6-5.3,17.2-8.9c4.6-3.7,8-7.8,10.4-12.6c2.3-4.8,3.5-9.5,3.5-14.4
		c0-3.6-0.5-6.8-1.4-9.6C127.5,52.7,126.2,50.2,124.6,48z M85.2,12.1c-4.4,0-8.3-1.3-11.5-3.8s-5.9-5.8-8.1-9.5S61.8-9,60.8-13.4
		c-1-4.3-1.6-8.2-1.6-11.7c0-2.8,0.3-5.5,0.9-8.2c0.7-2.7,1.8-5.1,3.7-7.3c1.7-2.1,3.8-3.8,6.4-5c2.7-1.3,5.3-1.9,8.1-1.9
		c4.3,0,8.1,1.3,11.3,3.8c3.3,2.6,6,5.8,8.2,9.7c2.3,3.9,3.8,8.1,5,12.5c1.1,4.4,1.7,8.5,1.7,12.3c0,1.9-0.3,4.4-0.8,7.3
		s-2,5.6-4.3,7.9c-1.7,1.7-3.8,3.1-6.3,4.2C90.4,11.5,87.8,12.1,85.2,12.1z M108.2,89.4c-5.2,4.3-12.8,6.3-22.8,6.3
		c-11.3,0-20.1-2.3-26.7-7.1c-6.6-4.7-9.8-10.8-9.8-18.3c0-3.8,0.8-6.8,2.2-9.3c1.4-2.5,3.2-4.6,5.1-6.3c1.9-1.7,3.9-2.9,5.9-3.8
		c2-0.9,3.6-1.6,4.7-2c2.3-0.7,4.5-1.3,6.8-1.8c2.3-0.5,4.6-0.8,6.7-1c2.1-0.2,3.9-0.3,5.4-0.4c1.5-0.1,2.5-0.1,2.9-0.1
		c1.1,0,2,0,2.6,0c0.6,0,1.3,0.1,2.2,0.3c3.8,2.8,7.3,5.3,10.2,7.5c2.9,2.3,5.3,4.3,7.1,6.4c1.8,2.1,3.2,4.2,4.1,6.3
		s1.3,4.5,1.3,7.2C116,79.8,113.4,85.1,108.2,89.4z"/>
</g>
</svg>
