<?xml version="1.0" encoding="utf-8"?>
<!-- Generator: Adobe Illustrator 18.1.1, SVG Export Plug-In . SVG Version: 6.00 Build 0)  -->
<svg version="1.1" id="Layer_1" xmlns="http://www.w3.org/2000/svg" xmlns:xlink="http://www.w3.org/1999/xlink" x="0px" y="0px"
	 width="28px" height="28px" viewBox="0 0 28 28" enable-background="new 0 0 28 28" xml:space="preserve">
<path fill="#FFFFFF" d="M21.7,9.2c-0.6,0.3-1.2,0.4-1.8,0.5c0.6-0.4,1.1-1,1.4-1.7c-0.6,0.4-1.3,0.6-2,0.8c-0.6-0.6-1.4-1-2.3-1
	c-1.7,0-3.1,1.4-3.1,3.1c0,0.2,0,0.5,0.1,0.7c-2.6-0.1-4.9-1.4-6.5-3.3C7.1,8.8,7,9.3,7,9.9C7,11,7.5,12,8.4,12.5
	c-0.5,0-1-0.2-1.4-0.4c0,0,0,0,0,0c0,1.5,1.1,2.8,2.5,3.1c-0.3,0.1-0.5,0.1-0.8,0.1c-0.2,0-0.4,0-0.6-0.1c0.4,1.3,1.6,2.2,2.9,2.2
	c-1.1,0.8-2.4,1.3-3.9,1.3c-0.3,0-0.5,0-0.8,0c1.4,0.9,3,1.4,4.8,1.4c5.8,0,9-4.8,9-9c0-0.1,0-0.3,0-0.4
	C20.7,10.4,21.3,9.9,21.7,9.2z"/>
</svg>
