<?xml version="1.0" encoding="utf-8"?>
<!-- Generator: Adobe Illustrator 18.1.1, SVG Export Plug-In . SVG Version: 6.00 Build 0)  -->
<svg version="1.1" xmlns="http://www.w3.org/2000/svg" xmlns:xlink="http://www.w3.org/1999/xlink" x="0px" y="0px"
	 viewBox="0 0 23 20" enable-background="new 0 0 23 20" xml:space="preserve">
<g id="bg">
</g>
<g id="kpis">
</g>
<g id="charts">
</g>
<g id="tooltip">
</g>
<g id="filters">
	<g>
		<path fill="#FFFFFF" d="M22,19H1V3h21V19z M2,18h19V4H2V18z"/>
		<rect x="8.5" y="7.6" fill="#FFFFFF" width="2" height="1"/>
		<rect x="12.5" y="7.6" fill="#FFFFFF" width="2" height="1"/>
		<rect x="16.5" y="7.6" fill="#FFFFFF" width="2" height="1"/>
		<rect x="4.5" y="10.6" fill="#FFFFFF" width="2" height="1"/>
		<rect x="8.5" y="10.6" fill="#FFFFFF" width="2" height="1"/>
		<rect x="12.5" y="10.6" fill="#FFFFFF" width="2" height="1"/>
		<rect x="16.5" y="10.6" fill="#FFFFFF" width="2" height="1"/>
		<rect x="4.5" y="13.6" fill="#FFFFFF" width="2" height="1"/>
		<rect x="8.5" y="13.6" fill="#FFFFFF" width="2" height="1"/>
		<rect x="12.5" y="13.6" fill="#FFFFFF" width="2" height="1"/>
		<rect x="16.5" y="13.6" fill="#FFFFFF" width="2" height="1"/>
		<rect x="5" y="1" fill="#FFFFFF" width="1" height="4.5"/>
		<rect x="17" y="1" fill="#FFFFFF" width="1" height="4.5"/>
	</g>
</g>
<g id="pointer">
</g>
</svg>
