<?xml version="1.0" encoding="utf-8"?>
<!-- Generator: Adobe Illustrator 19.2.0, SVG Export Plug-In . SVG Version: 6.00 Build 0)  -->
<!DOCTYPE svg PUBLIC "-//W3C//DTD SVG 1.1//EN" "http://www.w3.org/Graphics/SVG/1.1/DTD/svg11.dtd">
<svg version="1.1" id="Layer_1" xmlns="http://www.w3.org/2000/svg" xmlns:xlink="http://www.w3.org/1999/xlink" x="0px" y="0px"
	 viewBox="0 0 157 42" enable-background="new 0 0 157 42" xml:space="preserve">
<g>
	<g>
		<g>
			<path fill="#343E48" d="M155.2,13.9c0.9,0,1.7,0.8,1.7,1.7c0,1-0.8,1.7-1.7,1.7c-0.9,0-1.7-0.8-1.7-1.7
				C153.5,14.7,154.2,13.9,155.2,13.9L155.2,13.9z M155.2,14.2c-0.8,0-1.4,0.6-1.4,1.5c0,0.9,0.6,1.5,1.4,1.5c0.8,0,1.4-0.6,1.4-1.5
				C156.5,14.8,156,14.2,155.2,14.2L155.2,14.2z M154.8,16.7h-0.3v-1.9c0.1,0,0.3-0.1,0.6-0.1c0.3,0,0.5,0.1,0.6,0.1
				c0.1,0.1,0.1,0.2,0.1,0.4c0,0.3-0.1,0.4-0.4,0.5l0,0c0.1,0,0.3,0.2,0.4,0.5c0.1,0.3,0.1,0.4,0.1,0.5h-0.4
				c-0.1-0.1-0.1-0.2-0.1-0.5c-0.1-0.2-0.1-0.4-0.4-0.4h-0.2V16.7z M154.8,15.6h0.2c0.3,0,0.5-0.1,0.5-0.4c0-0.1-0.1-0.4-0.5-0.4
				c-0.1,0-0.1,0-0.2,0V15.6z"/>
		</g>
		<path fill="#343E48" d="M57.4,26.8c-2,0-3.6-1-4.6-2.6v11.1h-3.2V13h3.2v2.2c0.9-1.6,2.5-2.7,4.5-2.7c4,0,6.5,3.4,6.5,7
			C63.9,23.4,61.4,26.8,57.4,26.8z M56.8,15.5c-2.3,0-3.9,1.9-3.9,4.2c0,2.4,1.5,4.4,3.9,4.4c2.3,0,3.9-1.9,3.9-4.3
			C60.6,17.3,59.1,15.5,56.8,15.5z"/>
		<path fill="#343E48" d="M72.7,12.6c4.5,0,6.7,3.4,6.7,7.1c0,0.2,0,0.6-0.1,0.8H69.1c0,2.4,1.9,3.9,4.3,3.9c1.7,0,3-0.7,4.2-1.7
			l1.7,1.7c-1.3,1.2-3,2.4-6.2,2.4c-4.7,0-7.2-3.4-7.2-7.1C65.7,16,68.3,12.6,72.7,12.6z M69.1,18.6h7.3c-0.1-1.9-1.7-3.7-3.7-3.7
			C70.7,15,69.2,16.6,69.1,18.6z"/>
		<path fill="#343E48" d="M84.9,26.2h-3.2V13h3.2v1.8c0.6-1.2,2.2-2.2,4-2.2c4,0,5.5,2.5,5.5,6.5v7.2h-3.2v-7.2
			c0-2.7-1.2-3.8-3.1-3.8c-1.7,0-3.1,1.2-3.2,3.7L84.9,26.2L84.9,26.2z"/>
		<path fill="#343E48" d="M98.2,18.3v-2.7h-1.9V13h1.9V8.6h3.2V13h2.8v2.7h-2.8v2.6c0,4.2,0.2,5.6,1.7,5.6c0.3,0,0.6-0.1,0.9-0.1
			l0.4,2.4c-0.9,0.3-1.7,0.5-2.2,0.5C98.2,26.7,98.2,23.8,98.2,18.3z"/>
		<path fill="#343E48" d="M112.8,12.6c2,0,3.6,1.1,4.6,2.7V13h3.2v13.2h-3.2v-2.1c-0.9,1.6-2.5,2.7-4.5,2.7c-4,0-6.5-3.4-6.5-7
			C106.3,16,108.8,12.6,112.8,12.6z M113.4,24c2.3,0,3.9-2,3.9-4.3s-1.6-4.3-3.9-4.3c-2.3,0-3.9,2-3.9,4.3
			C109.5,22.1,111.1,24,113.4,24z"/>
		<path fill="#343E48" d="M126.5,26.2h-3.2v-25h3.2v13.6c0.7-1.2,2.2-2.2,4-2.2c4,0,5.6,2.5,5.6,6.5v7.2h-3.2v-7.2
			c0-2.7-1.2-3.8-3.1-3.8c-1.7,0-3.2,1.2-3.2,3.7L126.5,26.2L126.5,26.2z"/>
		<path fill="#343E48" d="M138,19.6c0-3.7,2.4-7,7.1-7c4.7,0,7.1,3.3,7.1,7s-2.4,7-7.1,7C140.4,26.7,138,23.4,138,19.6z M149.1,19.6
			c0-2.8-1.7-4.7-4-4.7c-2.2,0-3.9,1.9-3.9,4.7c0,2.9,1.7,4.7,3.9,4.7S149.1,22.5,149.1,19.6z"/>
		<g>
			<g>
				<path fill="#005DA6" d="M20.4,11.7c-1.5,0-3,0.3-4.5,0.8c-3.5,1.4-6.2,4.2-7.5,7.7C6.9,24,7.2,28.4,9.1,32.3
					C12,37.7,17.5,41,23.8,41c3,0,6.1-0.8,8.9-2.3c4.7-2.8,7.9-7.3,9-12.5c1.2-5.5-0.1-11.5-3.5-16.2C34,4.4,27.6,1.1,20.6,1.1
					c-7.9,0-15.1,4-19.3,10.6c-0.4,0.6-0.9,1.5-1.2,2.3c-0.1,0.1-0.1,0.5,0,0.7C0.3,14.9,0.6,15,0.7,15l0,0c0.4,0,0.7-0.4,1.2-1.1
					c2.4-3.5,5.2-6,8.5-7.7C13.2,4.7,16.5,4,19.7,4C27.4,4,34,8.1,37.1,14.9c1.7,4.2,1.7,9.1-0.1,13.1c-1.7,3.7-4.6,6.5-8.4,7.9
					c-1.4,0.5-2.9,0.7-4.4,0.7c-5.8,0-10.4-3.5-11.6-8.7c-0.6-2.8,0.1-5.9,1.8-8c1-1.2,2.8-2.7,5.6-2.8c1.8,0,3.6,0.9,4.6,2.2
					c0.8,0.9,1,2.1,0.8,3.2c-0.2,0.9-1.2,1.9-1.9,1.9c-0.2,0-0.4-0.1-0.6-0.2c-0.1-0.1-0.2-0.4-0.2-0.6c-0.1-0.5-0.1-1.2-1.2-1.6
					c-0.2-0.1-0.4-0.1-0.6-0.1c-1.4,0-2.4,1.4-2.7,2.7c-0.1,1.3,0.2,2.6,1.1,3.6c1.1,1.2,2.9,2,4.7,2c0.1,0,0.3,0,0.5,0
					c2.2-0.3,4.2-1.4,5.4-3.3c1.4-2.2,1.9-5.1,1.2-7.8C29.5,14.7,25.3,11.7,20.4,11.7z"/>
			</g>
		</g>
	</g>
	<g>
		<path fill="#343E48" d="M62.9,35.4l-0.5-1.5h-2l-0.5,1.5H59l2-5.4h0.9l2,5.4H62.9z M62.2,33.1l-0.5-1.4c-0.1-0.1-0.1-0.2-0.1-0.4
			c-0.1-0.2-0.1-0.4-0.1-0.4c-0.1,0.3-0.1,0.6-0.3,1l-0.5,1.4L62.2,33.1L62.2,33.1z"/>
		<path fill="#343E48" d="M70.8,35.4h-0.9V33h-2.5v2.4h-0.9v-5.3h0.9v2.2h2.4v-2.2h0.9L70.8,35.4L70.8,35.4z"/>
		<path fill="#343E48" d="M72,30.3c0-0.1,0.1-0.3,0.1-0.4c0.1-0.1,0.2-0.1,0.4-0.1c0.1,0,0.3,0.1,0.4,0.1c0.1,0.1,0.1,0.2,0.1,0.4
			c0,0.1-0.1,0.3-0.1,0.4c-0.1,0.1-0.2,0.1-0.4,0.1c-0.1,0-0.3-0.1-0.4-0.1C72.1,30.6,72,30.4,72,30.3z M72.9,35.4h-0.9v-4h0.9V35.4
			z"/>
		<path fill="#343E48" d="M75.7,34.7c0.2,0,0.4,0,0.6-0.1v0.6c-0.1,0.1-0.2,0.1-0.4,0.1c-0.1,0-0.3,0.1-0.4,0.1
			c-0.8,0-1.2-0.4-1.2-1.3V32h-0.6v-0.4l0.6-0.3l0.3-0.9h0.5v0.9h1.2V32h-1.2v2.2c0,0.2,0.1,0.4,0.1,0.4
			C75.4,34.7,75.5,34.7,75.7,34.7z"/>
		<path fill="#343E48" d="M79.6,35.4l-0.1-0.6l0,0c-0.2,0.2-0.4,0.4-0.6,0.5c-0.2,0.1-0.4,0.1-0.8,0.1c-0.4,0-0.7-0.1-0.9-0.3
			c-0.2-0.2-0.4-0.5-0.4-0.9c0-0.4,0.1-0.7,0.4-0.9c0.3-0.2,0.8-0.4,1.4-0.4h0.7v-0.2c0-0.3-0.1-0.4-0.2-0.6
			c-0.1-0.1-0.3-0.2-0.6-0.2c-0.2,0-0.4,0-0.6,0.1c-0.2,0.1-0.4,0.1-0.6,0.2l-0.3-0.6c0.2-0.1,0.4-0.2,0.7-0.3
			c0.3-0.1,0.5-0.1,0.7-0.1c0.5,0,0.9,0.1,1.2,0.4c0.3,0.2,0.4,0.6,0.4,1.1v2.7H79.6z M78.3,34.8c0.3,0,0.6-0.1,0.7-0.3
			c0.2-0.1,0.3-0.4,0.3-0.7v-0.4h-0.5c-0.4,0-0.7,0.1-0.9,0.2c-0.2,0.1-0.3,0.3-0.3,0.6c0,0.2,0.1,0.3,0.1,0.4
			C77.9,34.8,78.1,34.8,78.3,34.8z"/>
		<path fill="#343E48" d="M82.8,35.4c-0.6,0-1.1-0.1-1.4-0.5c-0.3-0.4-0.5-0.9-0.5-1.5c0-0.6,0.1-1.2,0.5-1.6
			c0.4-0.4,0.8-0.6,1.4-0.6c0.4,0,0.8,0.1,1.2,0.2l-0.3,0.7c-0.4-0.1-0.6-0.2-0.9-0.2c-0.7,0-1.1,0.4-1.1,1.4c0,0.4,0.1,0.8,0.3,1
			c0.1,0.2,0.4,0.4,0.8,0.4s0.7-0.1,1.1-0.3v0.7c-0.1,0.1-0.3,0.1-0.5,0.2C83.2,35.4,83,35.4,82.8,35.4z"/>
		<path fill="#343E48" d="M88.4,35.4h-0.9v-2.5c0-0.3-0.1-0.6-0.2-0.7c-0.1-0.1-0.4-0.2-0.6-0.2c-0.4,0-0.6,0.1-0.8,0.3
			c-0.1,0.2-0.3,0.6-0.3,1.1v2h-0.9v-5.7h0.9v1.4c0,0.2,0,0.5-0.1,0.7h0.1c0.1-0.2,0.3-0.4,0.5-0.4c0.2-0.1,0.4-0.1,0.7-0.1
			c1,0,1.4,0.5,1.4,1.5L88.4,35.4L88.4,35.4z"/>
		<path fill="#343E48" d="M89.4,30.3c0-0.1,0.1-0.3,0.1-0.4c0.1-0.1,0.2-0.1,0.4-0.1s0.3,0.1,0.4,0.1c0.1,0.1,0.1,0.2,0.1,0.4
			c0,0.1-0.1,0.3-0.1,0.4c-0.1,0.1-0.2,0.1-0.4,0.1s-0.3-0.1-0.4-0.1C89.4,30.6,89.4,30.4,89.4,30.3z M90.3,35.4h-0.9v-4h0.9V35.4z"
			/>
		<path fill="#343E48" d="M95.7,32.5h1.9v2.7c-0.3,0.1-0.6,0.1-0.9,0.2c-0.3,0.1-0.6,0.1-0.9,0.1c-0.8,0-1.4-0.2-1.9-0.7
			c-0.4-0.5-0.6-1.2-0.6-2c0-0.9,0.2-1.5,0.7-2c0.5-0.5,1.2-0.7,2-0.7c0.6,0,1.1,0.1,1.6,0.3L97.3,31c-0.4-0.2-0.9-0.3-1.3-0.3
			c-0.6,0-1,0.1-1.4,0.5s-0.5,0.9-0.5,1.4c0,0.6,0.1,1.2,0.4,1.5c0.3,0.4,0.7,0.5,1.3,0.5c0.3,0,0.6,0,0.9-0.1v-1.4h-1.1L95.7,32.5
			L95.7,32.5z"/>
		<path fill="#343E48" d="M100.9,31.3c0.1,0,0.3,0,0.4,0.1l-0.1,0.8c-0.1,0-0.2-0.1-0.4-0.1c-0.4,0-0.6,0.1-0.9,0.4
			c-0.2,0.2-0.3,0.5-0.3,0.9v2.1h-0.9v-4h0.6l0.1,0.7h0.1c0.1-0.2,0.3-0.4,0.5-0.6C100.5,31.3,100.7,31.3,100.9,31.3z"/>
		<path fill="#343E48" d="M105.7,33.4c0,0.6-0.1,1.2-0.5,1.5c-0.4,0.4-0.8,0.6-1.4,0.6c-0.4,0-0.7-0.1-1-0.3
			c-0.3-0.1-0.5-0.4-0.6-0.7c-0.1-0.3-0.2-0.7-0.2-1.1c0-0.6,0.1-1.2,0.5-1.5c0.4-0.4,0.8-0.6,1.4-0.6c0.6,0,1.1,0.2,1.4,0.6
			C105.5,32.2,105.7,32.7,105.7,33.4z M102.8,33.4c0,0.9,0.4,1.4,1,1.4s1-0.4,1-1.4c0-0.9-0.4-1.4-1-1.4c-0.4,0-0.6,0.1-0.8,0.4
			C102.8,32.6,102.8,32.9,102.8,33.4z"/>
		<path fill="#343E48" d="M109.4,35.4l-0.1-0.5h-0.1c-0.1,0.2-0.3,0.4-0.5,0.4c-0.2,0.1-0.5,0.1-0.7,0.1c-0.5,0-0.9-0.1-1.1-0.4
			c-0.2-0.2-0.4-0.6-0.4-1.1v-2.7h0.9v2.5c0,0.3,0.1,0.6,0.2,0.7c0.1,0.1,0.4,0.2,0.6,0.2c0.4,0,0.6-0.1,0.8-0.3
			c0.1-0.2,0.3-0.6,0.3-1.1v-2h0.9v4L109.4,35.4L109.4,35.4z"/>
		<path fill="#343E48" d="M113.2,35.4c-0.5,0-0.9-0.2-1.2-0.6h-0.1c0,0.4,0.1,0.6,0.1,0.6v1.7h-0.9v-5.8h0.7c0,0.1,0.1,0.3,0.1,0.6
			h0.1c0.3-0.4,0.6-0.6,1.2-0.6c0.5,0,0.9,0.2,1.2,0.6s0.4,0.9,0.4,1.5c0,0.6-0.1,1.2-0.4,1.5C114.1,35.2,113.7,35.4,113.2,35.4z
			 M113,32c-0.4,0-0.6,0.1-0.7,0.3c-0.1,0.2-0.2,0.5-0.2,0.9v0.1c0,0.5,0.1,0.9,0.2,1.1c0.1,0.2,0.4,0.4,0.8,0.4
			c0.3,0,0.5-0.1,0.7-0.4c0.1-0.2,0.2-0.6,0.2-1s-0.1-0.8-0.2-1C113.6,32.2,113.3,32,113,32z"/>
		<path fill="#343E48" d="M120.1,30.7c-0.5,0-0.9,0.1-1.2,0.5c-0.3,0.4-0.4,0.9-0.4,1.4c0,0.6,0.1,1.2,0.4,1.5
			c0.3,0.4,0.6,0.5,1.2,0.5c0.2,0,0.4,0,0.6-0.1c0.2-0.1,0.4-0.1,0.6-0.1v0.7c-0.4,0.1-0.9,0.2-1.4,0.2c-0.8,0-1.4-0.2-1.8-0.7
			s-0.6-1.2-0.6-2c0-0.6,0.1-1,0.3-1.4s0.5-0.7,0.9-0.9c0.4-0.2,0.9-0.4,1.4-0.4c0.6,0,1.1,0.1,1.5,0.4l-0.3,0.7
			c-0.2-0.1-0.4-0.1-0.6-0.2C120.5,30.7,120.3,30.7,120.1,30.7z"/>
		<path fill="#343E48" d="M125.9,33.4c0,0.6-0.1,1.2-0.5,1.5c-0.4,0.4-0.8,0.6-1.4,0.6c-0.4,0-0.7-0.1-1-0.3
			c-0.3-0.1-0.5-0.4-0.6-0.7c-0.1-0.3-0.2-0.7-0.2-1.1c0-0.6,0.1-1.2,0.5-1.5c0.4-0.4,0.8-0.6,1.4-0.6c0.6,0,1.1,0.2,1.4,0.6
			C125.8,32.2,125.9,32.7,125.9,33.4z M123,33.4c0,0.9,0.4,1.4,1,1.4s1-0.4,1-1.4c0-0.9-0.4-1.4-1-1.4c-0.4,0-0.6,0.1-0.8,0.4
			C123,32.6,123,32.9,123,33.4z"/>
		<path fill="#343E48" d="M130.2,35.4h-0.9v-2.5c0-0.3-0.1-0.6-0.1-0.7c-0.1-0.1-0.3-0.2-0.6-0.2c-0.4,0-0.6,0.1-0.7,0.3
			c-0.1,0.2-0.2,0.6-0.2,1.1v2h-0.9v-4h0.6l0.1,0.5h0.1c0.1-0.2,0.3-0.4,0.5-0.4c0.2-0.1,0.4-0.1,0.7-0.1c0.6,0,1,0.2,1.2,0.6h0.1
			c0.1-0.2,0.3-0.4,0.5-0.4c0.2-0.1,0.4-0.1,0.7-0.1c0.5,0,0.9,0.1,1.1,0.4c0.2,0.2,0.4,0.6,0.4,1.1v2.7H132v-2.5
			c0-0.3-0.1-0.6-0.1-0.7c-0.1-0.1-0.3-0.2-0.6-0.2c-0.4,0-0.6,0.1-0.7,0.3c-0.1,0.2-0.2,0.5-0.2,0.9v2.2H130.2z"/>
		<path fill="#343E48" d="M135.8,35.4c-0.5,0-0.9-0.2-1.2-0.6h-0.1c0,0.4,0.1,0.6,0.1,0.6v1.7h-0.9v-5.8h0.7c0,0.1,0.1,0.3,0.1,0.6
			h0.1c0.3-0.4,0.6-0.6,1.2-0.6c0.5,0,0.9,0.2,1.2,0.6c0.3,0.4,0.4,0.9,0.4,1.5c0,0.6-0.1,1.2-0.4,1.5
			C136.7,35.2,136.3,35.4,135.8,35.4z M135.6,32c-0.4,0-0.6,0.1-0.7,0.3c-0.1,0.2-0.2,0.5-0.2,0.9v0.1c0,0.5,0.1,0.9,0.2,1.1
			c0.1,0.2,0.4,0.4,0.8,0.4c0.3,0,0.5-0.1,0.7-0.4c0.1-0.2,0.2-0.6,0.2-1s-0.1-0.8-0.2-1C136.3,32.2,135.9,32,135.6,32z"/>
		<path fill="#343E48" d="M140.9,35.4l-0.1-0.6l0,0c-0.2,0.2-0.4,0.4-0.6,0.5c-0.2,0.1-0.4,0.1-0.8,0.1c-0.4,0-0.7-0.1-0.9-0.3
			c-0.2-0.2-0.4-0.5-0.4-0.9c0-0.4,0.1-0.7,0.4-0.9c0.3-0.2,0.8-0.4,1.4-0.4h0.7v-0.2c0-0.3-0.1-0.4-0.2-0.6
			c-0.1-0.1-0.3-0.2-0.6-0.2c-0.2,0-0.4,0-0.6,0.1c-0.2,0.1-0.4,0.1-0.6,0.2l-0.3-0.6c0.2-0.1,0.4-0.2,0.7-0.3
			c0.3-0.1,0.5-0.1,0.7-0.1c0.5,0,0.9,0.1,1.2,0.4c0.3,0.2,0.4,0.6,0.4,1.1v2.7H140.9z M139.6,34.8c0.3,0,0.6-0.1,0.7-0.3
			c0.2-0.1,0.3-0.4,0.3-0.7v-0.4h-0.5c-0.4,0-0.7,0.1-0.9,0.2c-0.2,0.1-0.3,0.3-0.3,0.6c0,0.2,0.1,0.3,0.1,0.4
			C139.1,34.8,139.4,34.8,139.6,34.8z"/>
		<path fill="#343E48" d="M146.1,35.4h-0.9v-2.5c0-0.3-0.1-0.6-0.2-0.7c-0.1-0.1-0.4-0.2-0.6-0.2c-0.4,0-0.6,0.1-0.8,0.3
			c-0.1,0.2-0.3,0.6-0.3,1.1v2h-0.9v-4h0.6l0.1,0.5h0.1c0.1-0.2,0.3-0.4,0.5-0.4c0.2-0.1,0.5-0.1,0.7-0.1c0.9,0,1.4,0.5,1.4,1.5
			L146.1,35.4L146.1,35.4z"/>
		<path fill="#343E48" d="M146.7,31.3h0.9l0.8,2.3c0.1,0.4,0.2,0.6,0.2,0.9l0,0c0-0.1,0.1-0.3,0.1-0.5c0.1-0.2,0.4-1.1,0.9-2.7h0.9
			l-1.7,4.6c-0.3,0.9-0.9,1.3-1.6,1.3c-0.2,0-0.4,0-0.6-0.1v-0.6c0.1,0,0.3,0.1,0.4,0.1c0.4,0,0.7-0.2,0.9-0.7l0.1-0.4L146.7,31.3z"
			/>
	</g>
	<g>
		<g>
			<path fill="#343E48" d="M155.2,13.9c0.9,0,1.7,0.8,1.7,1.7c0,1-0.8,1.7-1.7,1.7c-0.9,0-1.7-0.8-1.7-1.7
				C153.5,14.7,154.2,13.9,155.2,13.9L155.2,13.9z M155.2,14.2c-0.8,0-1.4,0.6-1.4,1.5c0,0.9,0.6,1.5,1.4,1.5c0.8,0,1.4-0.6,1.4-1.5
				C156.5,14.8,156,14.2,155.2,14.2L155.2,14.2z M154.8,16.7h-0.3v-1.9c0.1,0,0.3-0.1,0.6-0.1c0.3,0,0.5,0.1,0.6,0.1
				c0.1,0.1,0.1,0.2,0.1,0.4c0,0.3-0.1,0.4-0.4,0.5l0,0c0.1,0,0.3,0.2,0.4,0.5c0.1,0.3,0.1,0.4,0.1,0.5h-0.4
				c-0.1-0.1-0.1-0.2-0.1-0.5c-0.1-0.2-0.1-0.4-0.4-0.4h-0.2V16.7z M154.8,15.6h0.2c0.3,0,0.5-0.1,0.5-0.4c0-0.1-0.1-0.4-0.5-0.4
				c-0.1,0-0.1,0-0.2,0V15.6z"/>
		</g>
		<path fill="#343E48" d="M57.4,26.8c-2,0-3.6-1-4.6-2.6v11.1h-3.2V13h3.2v2.2c0.9-1.6,2.5-2.7,4.5-2.7c4,0,6.5,3.4,6.5,7
			C63.9,23.4,61.4,26.8,57.4,26.8z M56.8,15.5c-2.3,0-3.9,1.9-3.9,4.2c0,2.4,1.5,4.4,3.9,4.4c2.3,0,3.9-1.9,3.9-4.3
			C60.6,17.3,59.1,15.5,56.8,15.5z"/>
		<path fill="#343E48" d="M72.7,12.6c4.5,0,6.7,3.4,6.7,7.1c0,0.2,0,0.6-0.1,0.8H69.1c0,2.4,1.9,3.9,4.3,3.9c1.7,0,3-0.7,4.2-1.7
			l1.7,1.7c-1.3,1.2-3,2.4-6.2,2.4c-4.7,0-7.2-3.4-7.2-7.1C65.7,16,68.3,12.6,72.7,12.6z M69.1,18.6h7.3c-0.1-1.9-1.7-3.7-3.7-3.7
			C70.7,15,69.2,16.6,69.1,18.6z"/>
		<path fill="#343E48" d="M84.9,26.2h-3.2V13h3.2v1.8c0.6-1.2,2.2-2.2,4-2.2c4,0,5.5,2.5,5.5,6.5v7.2h-3.2v-7.2
			c0-2.7-1.2-3.8-3.1-3.8c-1.7,0-3.1,1.2-3.2,3.7L84.9,26.2L84.9,26.2z"/>
		<path fill="#343E48" d="M98.2,18.3v-2.7h-1.9V13h1.9V8.6h3.2V13h2.8v2.7h-2.8v2.6c0,4.2,0.2,5.6,1.7,5.6c0.3,0,0.6-0.1,0.9-0.1
			l0.4,2.4c-0.9,0.3-1.7,0.5-2.2,0.5C98.2,26.7,98.2,23.8,98.2,18.3z"/>
		<path fill="#343E48" d="M112.8,12.6c2,0,3.6,1.1,4.6,2.7V13h3.2v13.2h-3.2v-2.1c-0.9,1.6-2.5,2.7-4.5,2.7c-4,0-6.5-3.4-6.5-7
			C106.3,16,108.8,12.6,112.8,12.6z M113.4,24c2.3,0,3.9-2,3.9-4.3s-1.6-4.3-3.9-4.3c-2.3,0-3.9,2-3.9,4.3
			C109.5,22.1,111.1,24,113.4,24z"/>
		<path fill="#343E48" d="M126.5,26.2h-3.2v-25h3.2v13.6c0.7-1.2,2.2-2.2,4-2.2c4,0,5.6,2.5,5.6,6.5v7.2h-3.2v-7.2
			c0-2.7-1.2-3.8-3.1-3.8c-1.7,0-3.2,1.2-3.2,3.7L126.5,26.2L126.5,26.2z"/>
		<path fill="#343E48" d="M138,19.6c0-3.7,2.4-7,7.1-7c4.7,0,7.1,3.3,7.1,7s-2.4,7-7.1,7C140.4,26.7,138,23.4,138,19.6z M149.1,19.6
			c0-2.8-1.7-4.7-4-4.7c-2.2,0-3.9,1.9-3.9,4.7c0,2.9,1.7,4.7,3.9,4.7S149.1,22.5,149.1,19.6z"/>
		<g>
			<g>
				<path fill="#005DA6" d="M20.4,11.7c-1.5,0-3,0.3-4.5,0.8c-3.5,1.4-6.2,4.2-7.5,7.7C6.9,24,7.2,28.4,9.1,32.3
					C12,37.7,17.5,41,23.8,41c3,0,6.1-0.8,8.9-2.3c4.7-2.8,7.9-7.3,9-12.5c1.2-5.5-0.1-11.5-3.5-16.2C34,4.4,27.6,1.1,20.6,1.1
					c-7.9,0-15.1,4-19.3,10.6c-0.4,0.6-0.9,1.5-1.2,2.3c-0.1,0.1-0.1,0.5,0,0.7C0.3,14.9,0.6,15,0.7,15l0,0c0.4,0,0.7-0.4,1.2-1.1
					c2.4-3.5,5.2-6,8.5-7.7C13.2,4.7,16.5,4,19.7,4C27.4,4,34,8.1,37.1,14.9c1.7,4.2,1.7,9.1-0.1,13.1c-1.7,3.7-4.6,6.5-8.4,7.9
					c-1.4,0.5-2.9,0.7-4.4,0.7c-5.8,0-10.4-3.5-11.6-8.7c-0.6-2.8,0.1-5.9,1.8-8c1-1.2,2.8-2.7,5.6-2.8c1.8,0,3.6,0.9,4.6,2.2
					c0.8,0.9,1,2.1,0.8,3.2c-0.2,0.9-1.2,1.9-1.9,1.9c-0.2,0-0.4-0.1-0.6-0.2c-0.1-0.1-0.2-0.4-0.2-0.6c-0.1-0.5-0.1-1.2-1.2-1.6
					c-0.2-0.1-0.4-0.1-0.6-0.1c-1.4,0-2.4,1.4-2.7,2.7c-0.1,1.3,0.2,2.6,1.1,3.6c1.1,1.2,2.9,2,4.7,2c0.1,0,0.3,0,0.5,0
					c2.2-0.3,4.2-1.4,5.4-3.3c1.4-2.2,1.9-5.1,1.2-7.8C29.5,14.7,25.3,11.7,20.4,11.7z"/>
			</g>
		</g>
	</g>
</g>
</svg>
