<svg xmlns="http://www.w3.org/2000/svg" width="142.25" height="56" viewBox="0 0 142.25 56"><defs><style>.cls-1{fill:#fe6100;}.cls-2{fill:#ffc941;}.cls-3{fill:#f9f9f9;}</style></defs><title>[Hitachi] Steel Wheels Demo New UI Alignment_Oct26_v07</title><g id="Mockup"><path class="cls-1" d="M120.08,28.38h-5.14A3.35,3.35,0,0,0,115.3,30a2.46,2.46,0,0,0,.93,1,2.5,2.5,0,0,0,1.29.35,2.93,2.93,0,0,0,.86-.12,2.69,2.69,0,0,0,.76-.34,5.89,5.89,0,0,0,.67-.51c.21-.18.47-.42.8-.73a.85.85,0,0,1,.58-.17.92.92,0,0,1,.65.22.78.78,0,0,1,.26.62,1.8,1.8,0,0,1-.28.84,3.26,3.26,0,0,1-.85.91,4.67,4.67,0,0,1-1.41.73,6.22,6.22,0,0,1-2,.29,5.21,5.21,0,0,1-3.94-1.45,5.37,5.37,0,0,1-1.41-3.92,6.57,6.57,0,0,1,.35-2.16,4.88,4.88,0,0,1,1-1.71,4.37,4.37,0,0,1,1.64-1.09,5.68,5.68,0,0,1,2.15-.38,5.08,5.08,0,0,1,2.65.65,4.29,4.29,0,0,1,1.65,1.68,4.39,4.39,0,0,1,.55,2.1c0,.66-.19,1.09-.57,1.28A3.48,3.48,0,0,1,120.08,28.38Zm-5.14-1.5h4.77a3.22,3.22,0,0,0-.73-2,2.17,2.17,0,0,0-1.66-.67,2.09,2.09,0,0,0-1.62.68A3.36,3.36,0,0,0,114.94,26.88Z"/><path class="cls-2" d="M106.57,28.5H100a4.49,4.49,0,0,0,.46,2,3.08,3.08,0,0,0,2.83,1.75,3.81,3.81,0,0,0,1.1-.14,3.45,3.45,0,0,0,1-.44,6.4,6.4,0,0,0,.86-.64c.27-.23.61-.54,1-.94a1.11,1.11,0,0,1,.74-.22,1.27,1.27,0,0,1,.84.28,1,1,0,0,1,.32.8,2.12,2.12,0,0,1-.36,1.06,4.28,4.28,0,0,1-1.07,1.17,6.15,6.15,0,0,1-1.81.93,7.69,7.69,0,0,1-2.5.37,6.73,6.73,0,0,1-5-1.84,6.9,6.9,0,0,1-1.79-5A8.39,8.39,0,0,1,97,24.9a6.15,6.15,0,0,1,1.29-2.18,5.54,5.54,0,0,1,2.09-1.4,7.6,7.6,0,0,1,2.75-.48,6.49,6.49,0,0,1,3.38.83,5.39,5.39,0,0,1,2.1,2.14,5.62,5.62,0,0,1,.7,2.68,1.68,1.68,0,0,1-.72,1.64A4.56,4.56,0,0,1,106.57,28.5ZM100,26.6h6.08a4.06,4.06,0,0,0-.93-2.58,2.76,2.76,0,0,0-2.12-.85A2.7,2.7,0,0,0,101,24,4.29,4.29,0,0,0,100,26.6Z"/><path class="cls-3" d="M11.67,20.51H8.33v11a2,2,0,0,1-.43,1.4,1.39,1.39,0,0,1-1.09.46,1.42,1.42,0,0,1-1.11-.46,2,2,0,0,1-.43-1.4v-11H1.93a1.69,1.69,0,0,1-1.17-.34,1.2,1.2,0,0,1-.38-.92,1.16,1.16,0,0,1,.4-.93A1.73,1.73,0,0,1,1.93,18h9.74a1.73,1.73,0,0,1,1.18.35,1.19,1.19,0,0,1,.39.92,1.17,1.17,0,0,1-.39.92A1.75,1.75,0,0,1,11.67,20.51Z"/><path class="cls-3" d="M18.12,18.13a1.51,1.51,0,0,1-1-.36,1.42,1.42,0,0,1,0-2,1.49,1.49,0,0,1,1-.38,1.45,1.45,0,0,1,1,.35,1.24,1.24,0,0,1,.42,1,1.29,1.29,0,0,1-.41,1A1.43,1.43,0,0,1,18.12,18.13ZM19.51,21v8.15a1.82,1.82,0,0,1-.4,1.28,1.33,1.33,0,0,1-1,.43,1.3,1.3,0,0,1-1-.44,1.87,1.87,0,0,1-.38-1.27V21.13a1.79,1.79,0,0,1,.38-1.26,1.29,1.29,0,0,1,1-.43,1.33,1.33,0,0,1,1,.43A1.61,1.61,0,0,1,19.51,21Z"/><path class="cls-3" d="M27.1,23.47v.35a4.81,4.81,0,0,1,1.62-1.44,4.31,4.31,0,0,1,2-.46,4,4,0,0,1,2,.48,3.07,3.07,0,0,1,1.32,1.37,3.59,3.59,0,0,1,.36,1.12,12.61,12.61,0,0,1,.08,1.53v5.24a1.87,1.87,0,0,1-.39,1.28,1.27,1.27,0,0,1-1,.43,1.31,1.31,0,0,1-1-.44,1.87,1.87,0,0,1-.39-1.27V27a4.65,4.65,0,0,0-.39-2.13,1.57,1.57,0,0,0-1.54-.74,2.27,2.27,0,0,0-1.37.45,2.57,2.57,0,0,0-.91,1.24,8.65,8.65,0,0,0-.21,2.35v3.53A1.88,1.88,0,0,1,26.88,33a1.36,1.36,0,0,1-1,.42,1.25,1.25,0,0,1-1-.44,1.87,1.87,0,0,1-.39-1.27V23.52a1.77,1.77,0,0,1,.35-1.21,1.21,1.21,0,0,1,1-.39,1.29,1.29,0,0,1,.67.17,1.24,1.24,0,0,1,.48.53A1.84,1.84,0,0,1,27.1,23.47Z"/><path class="cls-3" d="M42,31.25l.26-.63-3.47-8.73a3.37,3.37,0,0,1-.32-1.09,1.25,1.25,0,0,1,.19-.68,1.34,1.34,0,0,1,.51-.49,1.3,1.3,0,0,1,.68-.19,1.08,1.08,0,0,1,.91.39,3.58,3.58,0,0,1,.55,1.11l2.39,6.94L46,21.43a9.64,9.64,0,0,1,.48-1.23,1.46,1.46,0,0,1,.46-.6,1.21,1.21,0,0,1,.69-.16,1.25,1.25,0,0,1,.61.17,1.27,1.27,0,0,1,.46.46,1.35,1.35,0,0,1,.16.61l-.14.56a7.63,7.63,0,0,1-.23.73L44.8,31.59a11.48,11.48,0,0,1-.93,2,2.91,2.91,0,0,1-1.2,1.11,4.4,4.4,0,0,1-2,.39,4.87,4.87,0,0,1-1.86-.27,1,1,0,0,1-.62-1,1,1,0,0,1,.3-.75,1.27,1.27,0,0,1,.87-.26,1.61,1.61,0,0,1,.44.06,2.23,2.23,0,0,0,.47.06A1.61,1.61,0,0,0,41,32.8a1.33,1.33,0,0,0,.5-.5A7.42,7.42,0,0,0,42,31.25Z"/><path class="cls-3" d="M71.3,30.73l-2.44-9.07-2.48,9.07c-.19.69-.35,1.18-.46,1.48a2,2,0,0,1-.59.81,1.75,1.75,0,0,1-1.13.35,1.83,1.83,0,0,1-.93-.21,1.57,1.57,0,0,1-.6-.6,3.75,3.75,0,0,1-.37-.92c-.09-.35-.18-.68-.26-1L59.52,20.47a5.91,5.91,0,0,1-.22-1.35,1.35,1.35,0,0,1,.41-1,1.41,1.41,0,0,1,1-.4,1.15,1.15,0,0,1,1.13.53,6.08,6.08,0,0,1,.5,1.56l2,8.84,2.21-8.27A14.83,14.83,0,0,1,67,18.94a2,2,0,0,1,.64-.85,1.86,1.86,0,0,1,1.21-.36,1.78,1.78,0,0,1,1.2.37,2.13,2.13,0,0,1,.59.82q.16.45.45,1.47l2.24,8.27,2-8.84a10.47,10.47,0,0,1,.27-1.08A1.86,1.86,0,0,1,76,18a1.26,1.26,0,0,1,.91-.3,1.44,1.44,0,0,1,1,.39,1.36,1.36,0,0,1,.41,1,6.44,6.44,0,0,1-.22,1.35L75.64,30.66c-.17.69-.32,1.19-.43,1.51a2,2,0,0,1-.58.84,2,2,0,0,1-2.27,0,1.77,1.77,0,0,1-.59-.79C71.66,31.94,71.5,31.44,71.3,30.73Z"/><path class="cls-3" d="M84.9,18.2v4.18a6.21,6.21,0,0,1,1-1,3.8,3.8,0,0,1,1.13-.54,4.75,4.75,0,0,1,1.33-.18,4,4,0,0,1,1.91.45,3.37,3.37,0,0,1,1.3,1.32,3.11,3.11,0,0,1,.4,1.13A8.83,8.83,0,0,1,92.13,25v5.39a1.85,1.85,0,0,1-.39,1.28,1.32,1.32,0,0,1-1,.44c-.93,0-1.39-.57-1.39-1.72V25.67a4.38,4.38,0,0,0-.4-2.09,1.6,1.6,0,0,0-1.53-.72,2.27,2.27,0,0,0-1.36.43,2.53,2.53,0,0,0-.9,1.17,7.49,7.49,0,0,0-.23,2.24v3.72a1.87,1.87,0,0,1-.38,1.28,1.31,1.31,0,0,1-1,.44c-.93,0-1.4-.57-1.4-1.72V18.2a1.94,1.94,0,0,1,.37-1.28,1.27,1.27,0,0,1,1-.43,1.3,1.3,0,0,1,1,.43A1.87,1.87,0,0,1,84.9,18.2Z"/><path class="cls-3" d="M126.54,30.42V18.2a1.92,1.92,0,0,1,.38-1.28,1.27,1.27,0,0,1,1-.43,1.32,1.32,0,0,1,1,.43,1.83,1.83,0,0,1,.39,1.28V30.42a1.81,1.81,0,0,1-.4,1.29,1.33,1.33,0,0,1-1,.43,1.26,1.26,0,0,1-1-.45A1.86,1.86,0,0,1,126.54,30.42Z"/><path class="cls-3" d="M142.25,29.69a3.46,3.46,0,0,1-.57,2A3.54,3.54,0,0,1,140,33a7.56,7.56,0,0,1-2.69.42,6.62,6.62,0,0,1-2.61-.46,3.88,3.88,0,0,1-1.6-1.16,2.37,2.37,0,0,1-.51-1.4,1.09,1.09,0,0,1,.33-.8,1.13,1.13,0,0,1,.83-.33,1,1,0,0,1,.69.22,2.61,2.61,0,0,1,.45.61,3,3,0,0,0,1,1.12,3.09,3.09,0,0,0,1.64.38,2.38,2.38,0,0,0,1.39-.38,1.06,1.06,0,0,0,.54-.86,1.17,1.17,0,0,0-.56-1.09,7.26,7.26,0,0,0-1.85-.65,14.78,14.78,0,0,1-2.37-.76,3.82,3.82,0,0,1-1.46-1,2.39,2.39,0,0,1-.55-1.6,2.79,2.79,0,0,1,.51-1.6,3.41,3.41,0,0,1,1.49-1.2,5.71,5.71,0,0,1,2.38-.45,8,8,0,0,1,2,.22,5,5,0,0,1,1.45.61,3,3,0,0,1,.89.85,1.67,1.67,0,0,1,.3.91,1.05,1.05,0,0,1-.32.79,1.29,1.29,0,0,1-.93.31,1.08,1.08,0,0,1-.73-.25,4.25,4.25,0,0,1-.7-.74,2.47,2.47,0,0,0-.75-.66,2.35,2.35,0,0,0-1.18-.25,2.28,2.28,0,0,0-1.27.33.93.93,0,0,0-.51.81.86.86,0,0,0,.38.72,2.91,2.91,0,0,0,1,.47c.42.13,1,.28,1.73.46a9.38,9.38,0,0,1,2.14.76,3.53,3.53,0,0,1,1.26,1A2.29,2.29,0,0,1,142.25,29.69Z"/></g></svg>