<svg xmlns="http://www.w3.org/2000/svg" width="17" height="17" viewBox="0 0 17 17"><defs><style>.cls-1{fill:none;stroke:#fff;stroke-linecap:round;stroke-linejoin:round;}</style></defs><title>Artboard 109</title><g id="Mockup"><path class="cls-1" d="M6.35,11C4.38,11.57.5,13.38.5,15.17V16.5h16V15.17c0-1.78-3.91-3.54-5.87-4.1"/><path class="cls-1" d="M8.5.5a4,4,0,0,0-4,4A12.54,12.54,0,0,0,6.35,11a3.19,3.19,0,0,0,2.17,1,3.16,3.16,0,0,0,2.12-.91A12.62,12.62,0,0,0,12.5,4.5,4,4,0,0,0,8.5.5Z"/></g></svg>